<svg id="Ebene_1" data-name="Ebene 1" xmlns="http://www.w3.org/2000/svg" viewBox="0 0 129.2 129.2"><defs><style>.cls-1{fill:#33704c;}.cls-2{fill:#fff;stroke:#000;stroke-miterlimit:10;}.cls-3{fill:#d41308;}.cls-4{fill:#e1cf10;}.cls-5{fill:#191f67;}</style></defs><title>cardtables</title><circle class="cls-1" cx="674.85" cy="102.59" r="64.58" transform="translate(-262.61 663.66) rotate(-70)"/><g id="g6155"><rect class="cls-2" x="28.84" y="13.9" width="70.9" height="102.9" rx="5.32" ry="5.32"/><path id="path163-0-2-7-7-1-8-7-00-1-2" class="cls-3" d="M643.68,74.93s-.72-1-1.68-2.24a4.92,4.92,0,0,1-1.22-2.43,1.56,1.56,0,0,1,1.41-1.77,1.51,1.51,0,0,0,3,0,1.56,1.56,0,0,1,1.41,1.77,4.86,4.86,0,0,1-1.21,2.43C644.4,73.9,643.68,74.93,643.68,74.93Z" transform="translate(-610.25 -37.99)"/><path id="path163-0-2-7-7-1-8-1-9-4-6-8" class="cls-3" d="M704.58,130.43s-.72,1-1.68,2.24a4.92,4.92,0,0,0-1.22,2.43,1.56,1.56,0,0,0,1.41,1.77,1.51,1.51,0,0,1,3,0,1.56,1.56,0,0,0,1.41-1.77,4.86,4.86,0,0,0-1.21-2.43C705.3,131.46,704.58,130.43,704.58,130.43Z" transform="translate(-610.25 -37.99)"/><path id="path39-51-8-0-0" class="cls-3" d="M644.46,66.69h1.07L644,62.75l-1.22,1.66v2.27h.84v1.17h-2.95V66.69h1V58.23h-1v-1h3v1.06h-.83v4.12l2.62-4.16h-.93v-1h3.21v1h-.85l-2.17,3.4,2.12,5.06h.94v1.17h-3.29V66.69Z" transform="translate(-610.25 -37.99)"/><path id="path39-3-9-6-0-8" class="cls-3" d="M704.3,139.08h-1.05l1.57,3.94,1.22-1.66v-2.27h-.84v-1.17h3v1.17h-1v8.46h1v1h-3.05v-1.06h.83v-4.12l-2.63,4.16h.93v1h-3.18v-1h.85l2.17-3.4L702,139.06H701v-1.17h3.29v1.17Z" transform="translate(-610.25 -37.99)"/><path id="path3876-2-1-7" class="cls-4" d="M664.27,137.76a92.19,92.19,0,0,0,17.41.38c1.54,2.15,4.64,6.53,4.64,6.53l-28.06.24ZM657,139.25a9.33,9.33,0,0,0,.75-5.13c-.11-1.62.9-2.9,1.94-2.43.81.38.43,1.92-.4,1.59-.32-.13-.6,0-.55.72.07,1.81.55,3.84.14,5.57s-2.57.93-1.87-.32Zm-7-2.36a1.34,1.34,0,0,1,1.7-2c.47.22.41.7-.19.45-.81-.36-1.72.92-1,1.43.33.23.46.2.21-.09-.67-.79,1-1.14,1-.62a9.32,9.32,0,0,1-.19,1c-.34.55-1,.28-1.51-.21Zm2.47-5.64a1.48,1.48,0,0,1,.09-2.09l0,0c.28-.31-2.28-5.13-2-5.16a73.3,73.3,0,0,1,9.76,0s-1.73,3.14-2.43,4.69c-.28.63.37,1.36.1,1.83-.83.92-.32,1.94-.84,2a10.61,10.61,0,0,0-4.48,0c-.13,0-.11-.81-.29-1.22Zm14-33.51c1.62,8.41-.78,17.33-6.31,23.21-.78-.76-1.38-2.2-2.16-3.13-2.16-.66-3.72.12-5.24.87a8.55,8.55,0,0,0-4.35-1.22l0-1.32a7.85,7.85,0,0,1,4.41.94l2.09-.85-6.5-6.79.09-1.16,7.89,8,1,0a14.34,14.34,0,0,1,9.11-18.61Zm11,10.53,1.14,5.49s-6.39,6.43-9.75,9.67l-2.81-.26a39,39,0,0,0,3.13-6.36Zm22.68,7.53c-2.68,3-5.88,5-9.43,7.07a46.25,46.25,0,0,1-4.14-4.95c3.1-1.67,6.07-3,9.09-5.89a21.16,21.16,0,0,1-3.86,1.31c-.13.62-.05,1-.66,1.17a5.7,5.7,0,0,0-2.53-2.27,2.55,2.55,0,0,1-1.1-.27c.32-.06.18-3.93,0-4,.34-.11.7-.38,1.17.15.22.15,2.36-2,3.09-2.77,2.86-.24,5.39,0,8.2,0,0,3.44.17,7,.17,10.44ZM682,107.1a33.83,33.83,0,0,1-.11-9.42c1.88-6,1.4-7.69,6.26-13.6.32-.32,1.44.7,2.27,2.46,2.43,1.54,5.54-.45,5.54-.45a9.53,9.53,0,0,0,3.94,1.54l0,1.07c0,.31-3.07-.33-3.73-1a15.38,15.38,0,0,0-2.29.91c0,.6,6.1,6.29,6.1,6.29l0,1.35s-8.36-8.79-8.47-7.87c2.39,10.34-1.66,15.57-9.41,18.69Zm-10.1-1.81-.14-5.46,5.14.06.21,5.52ZM648.33,99.4c.14-.19-.2-10.18-.18-10.18,3.27-3.29,6.48-5.13,9.69-7.13a22.61,22.61,0,0,1,3.75,4.46l-4.43,2.75c.17.67-.27.92,2.59,3.53,0-.18,1-.71,1.15.09a10.1,10.1,0,0,0,.25,4c-.4.53-1.26,0-1.26,0-.56-.6-2.77,2.34-3.41,2.66C653.73,99.43,648.18,99.62,648.33,99.4Zm30.95-17.76s2.84,0,2.81.07c-.51,1.27-1.68,3.79-2.84,6.58-1,1.62-8,8.39-8,8.39a55.2,55.2,0,0,0-1.35-5.78Zm12.15-9.42a9.64,9.64,0,0,0,4.31,0c.58.41.22.92.15,1.22.6.76.92,1,.24,2.25a51.43,51.43,0,0,0,2.13,5.07,21.33,21.33,0,0,1-3.18-1.89l-1.62,2.18-1.89-2.46a22.32,22.32,0,0,1-3.68,2.54c-.11-.12,3.31-3.84,2.63-6-.16-.53.21-1.07.47-1.53s-.06-.94.44-1.36Zm-1.88-.45c.15-.18-.88-4.76.24-6.61a1,1,0,0,1,1.69-.16c.28.77-.54,1.83-.7,2.35-.53,1.45.26,3.36-.13,4.73-1.15,3-3.2-.3-1.1-.32Zm7.67-2c-.61,0-.18-1.81-.09-2.33a1.19,1.19,0,0,1,1.51.36c.65,1.08-.13,2.43-1.43,2ZM690,60.48l-5.73,7c-5.79-.67-11.6-1.1-17.52-.19L662,60.62Z" transform="translate(-610.25 -37.99)"/><path id="path3874-3-1-4" class="cls-5" d="M700.58,60h-52.9v85.26h52.9Zm-10.67.44-6.34,7.87-.16.05a37.09,37.09,0,0,0,1.62,4c.92,1.92,3.24,5.43,1.79,8.25-.14.24-.27.36-.45.36s-.24-.15-.09-.43a6.12,6.12,0,0,0,.4-2.88,11.29,11.29,0,0,0-.87-2.43c-2.41-4.5-3.16-6.88-3-6.88a.54.54,0,0,0-.17-.07l-.23-.08a47.14,47.14,0,0,0,3.26,7.45c.88,2.06,1,2.84.51,4.35-.18.58-.5,1-.81.95s-.22,0-.06-.34c.84-1.53.65-3.2-.4-5.15a44.35,44.35,0,0,1-3-7.29l-.37-.11a37.62,37.62,0,0,0,2.89,7.15c1,1.95,1.25,3.37.9,4.49-.11.49-.48,1.22-.94,1.22-.18,0-.21-.1,0-.35.72-1.25.85-2.4-.44-5a30,30,0,0,1-2.78-7.46c0-.19-.54-.41-.43-.1a41.44,41.44,0,0,0,3.24,8.41c.76,1.73.83,2.84.27,3.79-.32.54-.4.66-.64.67s-.28,0-.12-.31c.69-1.45.58-2.73-.34-4.82A35.61,35.61,0,0,1,680.32,68c-.08,0-.51-.19-.45-.06a41.34,41.34,0,0,0,2.45,6.94,23.17,23.17,0,0,1,1.14,3.07c.36,1.46-.45,3.45-1.51,3.56-.4,0-.34-.16.09-.58a3.32,3.32,0,0,0,.65-3.17,16.72,16.72,0,0,0-1-3.22,31.68,31.68,0,0,1-2.25-6.65c0-.19-.4-.19-.29,0a23.75,23.75,0,0,0,1.37,4.65,27.27,27.27,0,0,1,1.95,5.64c.26,1.69-.78,3.28-2,3.38A1.47,1.47,0,0,1,679,79.4c.6-1.07,2.33-.46,1.82.64a.6.6,0,0,1-1.17-.23c0-.06.09-.25.07-.26s-.17.11-.21.18c-.31.56.62,1.31,1.26.86,2.16-1.18.7-4.79-.24-7a22.84,22.84,0,0,1-1.87-5.81c-.08-.06-.43-.15-.4-.08.26,1,.38,1.87.64,2.72.4,1.34,1.14,2.84,1.73,4.33a7.69,7.69,0,0,1,.84,4.26.84.84,0,0,1-.18.4c-.1.1-.18.09-.21-.3,0-.05-.08-.12-.09-.19a4.79,4.79,0,0,0-.13-1.69,8.27,8.27,0,0,0-.85-1.8c-.2-.33-.72-1.34-.54-.64a9.55,9.55,0,0,0,.84,1.9,3.92,3.92,0,0,1,.4,1.67c-.08.2-.25.21-.34.15s-.07-.35-.09-.53a5.54,5.54,0,0,0-1.33-2.5c-.37-.41.87,1.77,1,2.34,0,.25.11.45,0,.57s-.17.08-.28.05-.1-.1-.21-.47a3.76,3.76,0,0,0-.91-1.52c-.17-.2-.28,0,0,.37a3.71,3.71,0,0,1,.73,1.71c-.24.34-.35.28-.85-.59-.33-.57-.53-.72-.61-.71s0,.28.6,1.26c.32.52.32.84,0,.84a3.86,3.86,0,0,1-1-1.09c-.14-.28-.32-.48-.32-.15a4.37,4.37,0,0,0,.71,1.17c.46.53.59.64.65.88s.09.31.12.44c.12.41.06.49-.18.29s-.19-.32-.49-.53a4.91,4.91,0,0,1-.81-1c-.09-.13-.16-.29-.25-.4-.22-.41-.51-.45-.3,0a6.32,6.32,0,0,0,.44.76c.29.41.23.63-.11.63-.15,0-.55-.54-.81-1s-.43-.47-.4-.2a3.2,3.2,0,0,0,.51.93c.33.41.37.63.05.63s-.41-.21-.68-.64-.43-.55-.5-.5a3.49,3.49,0,0,0,.77,1.3c.39.44.1.65-.32.28a4.69,4.69,0,0,1-.81-1.08c-.23-.51-.38-.37-.23,0a3.67,3.67,0,0,0,.71,1.21c.16.17.49.3.66.44.46.41.75.77.71.84-1.31.07-2.39-1.34-2.68-2.2-.21-.56-.45-.64-.22.15.64,2,2.63,3,4,2.11.83-.53.1-1.92-.58-1.48-.18.12-.19.47,0,.28.44-.35.89.51.4.76-.68.36-1.43-.34-1-1.19a1.11,1.11,0,0,1,1.92,1,2.5,2.5,0,0,1-2,1.43,3.62,3.62,0,0,1-3.13-2.3L673,80.5a3,3,0,0,0-.18-.36,4.51,4.51,0,0,0,2.68,3.43c2,.47,2.51-.72,3.8-1.95,0,0,.94.13,1,.1a11.66,11.66,0,0,1,1.89-.08,43.09,43.09,0,0,0-.45,40c.4.85.47.69-.19.52s-1.31.1-1.87,0c-1.15-.24-1.4.56-2.29,1-1.11.41-.85,1.22-1.12,2-.09.12-.14.21-.1.19a.7.7,0,0,0,.33-.44,1.82,1.82,0,0,1,.4-1.09c.19-.19.32-.28.37-.2a.69.69,0,0,1-.09.47c-.27.51.09,2.23.11,1a3,3,0,0,1,1.41-2.49c.65-.32.85-.29.32.21a3.51,3.51,0,0,0-1,2.35c0,.41.14.72.2.36,0-1.79,1.75-3.78,3.64-2.79.09.07.17.2.15.27-1.84-.31-3.43.7-3.2,3.11a7.92,7.92,0,0,0,.26-.94,2.41,2.41,0,0,1,3.09-1.71c.22.09.4.41.36.45a2.57,2.57,0,0,0-3,2.37c0,.47,0,.88.22,0,.91-3.24,3.72-1.78,3.38-1.51-2.17-.26-3,1.22-2.91,2.93,0,.16.11.21.17.36a5.35,5.35,0,0,1,.45,2.37c0,.3.22,2.22,0,2.14a2.87,2.87,0,0,0-2.76,0c-.12,0-.16-.06-.12-.17a4.15,4.15,0,0,1,.64-.86c.84-.91.36-.66-.33,0-.45.41-.35.13.07-1.26.17-.56.06-.63-.67-1s-1.28-.45-.64,0a5.42,5.42,0,0,0,.81.43c.34.19.3.26,0,1.07a8.83,8.83,0,0,0-.62,3.21c.06,2.58,2.49,2.32,3.87,1.74l.06,1.7,5.2,7.42s-18.19,0-27.94.14c.55-1.35,6.44-7.07,6.79-8.1,0,0-.65-2.09-1-3-1.7-4.31-3.94-6.12-2.64-8.94.28-.56.33-.75.54-.75s.38.19.06.74c-1.39,2.36,1.58,6.43,2.58,9a29.64,29.64,0,0,1,1,3c0,.2.48.27.35,0-.37-1.33-.83-2.77-1-3.3-.81-1.92-1.62-3.24-2.4-5.1a4.56,4.56,0,0,1,0-3.78c.24-.45.31-.7.47-.72s.22,0,.23.16a1.36,1.36,0,0,1-.25.64c-1.17,2,.91,5.27,1.94,7.59a18.42,18.42,0,0,1,1.48,4.54.23.23,0,0,0,.4.18,32.29,32.29,0,0,0-2.9-7.78c-1-2-1.35-3.65,0-5.27.11-.11.36-.09.38.07a2.12,2.12,0,0,1-.28.75c-1.15,2.43.63,4.42,1.47,6.75a22.7,22.7,0,0,1,1.88,5.67c.23.09.34.2.37-.09a40.15,40.15,0,0,0-3-8.1,5.64,5.64,0,0,1-.73-2.37,3.8,3.8,0,0,1,.91-2.64.24.24,0,0,1,.3,0c.11.06.12.13-.17.69a4,4,0,0,0-.09,3.52c.89,1.94,1.62,3.53,2.17,5a17.1,17.1,0,0,1,1,4.14s.4.18.34-.09a22.46,22.46,0,0,0-1.41-5c-.57-1.42-1.28-2.78-1.86-4.18a3.58,3.58,0,0,1,1.32-4.46h.66a2.8,2.8,0,0,0-1.58,2.7c-.07,2,.87,3.26,1.56,5a20,20,0,0,1,1.76,6.07.62.62,0,0,0,.4.06,21.47,21.47,0,0,0-1.22-4.63c-.65-1.85-1.3-2.66-1.9-4.6-.4-1.31-.35-3.09.55-3.9,1.36-1.39,3.26-.4,2.79,1.19a1,1,0,0,1-1.88-.15.59.59,0,0,1,1.1-.35c.06.1.11.53.13.55a1.21,1.21,0,0,0,.11-.41.93.93,0,0,0-1.3-.75,2.54,2.54,0,0,0-1.22,2.47,8.51,8.51,0,0,0,1.31,4.08,20.27,20.27,0,0,1,1.85,6.52.56.56,0,0,1,.29,0A19.44,19.44,0,0,0,668,130.8c-1.13-2.39-1.45-3.84-1.07-4.91.06-.16.11-.28.18-.29s.17.19.28.62a1.4,1.4,0,0,1,0,.5,7.9,7.9,0,0,0,1.22,3.92c.19.26.4.25.22-.21a7.78,7.78,0,0,1-1.1-3.69c0-.41.47-.23.48,0a4.93,4.93,0,0,0,.45,2.07c.66,1.14,1,1.19.35-.09a4,4,0,0,1-.4-2c.1-.09.21-.1.27,0a4.92,4.92,0,0,0,.92,1.94c.24.28.28.15.16-.2s-.89-1.77-.58-2.08c.1-.09,0,0,.31.41a5.06,5.06,0,0,0,.77,1c.24.24.3.08.05-.35-.5-.85-.81-1.56-.61-1.74s.22-.09.62.59c.18.3.43.75.52.86s.17.13.17,0a3.35,3.35,0,0,0-1.08-1.93,4.66,4.66,0,0,1,0-.73c1.05.55,1.1,1.17,1.8,2.12.07.07.17,0,.15-.15a5.73,5.73,0,0,0-.7-1.32c-.2-.28-.21-.43,0-.51s.67.29,1.09,1c.19.35.45.55.45.37a4.17,4.17,0,0,0-.61-1.26c-.41-.43-.21-.73.27-.34a2.16,2.16,0,0,1,.81,1c.18.41.33.43.33.13a2.63,2.63,0,0,0-1-1.42c-.3-.18-.47-.38-.4-.52.26-.41,1.32.6,1.68,1.53.11.27.3.41.34.29a2.11,2.11,0,0,0-.35-1c-.36-.7-1.22-1.39-1.73-1.3-.1,0-.37-.56-.37-.56,1.3-.21,2.56,1.36,2.79,2,.43,1.12.64,1,.27,0-.73-1.92-3-3-4.25-2.06-.72.53-.29,1.79.45,1.58.29-.11.58-.41.06-.31a.51.51,0,0,1-.17-1c.94-.28,1.15,1.22.4,1.56a1,1,0,0,1-1.5-1c.14-1.65,2.15-2.13,4.13-.81a5.46,5.46,0,0,1,1.48,2.37c.08.26.34.34.37.31a12.71,12.71,0,0,0-.76-1.79c-.86-2-4-2.09-4-2a11.47,11.47,0,0,0-2.3,2.06l-2.79-.26c7.1-11.52,7.66-28.46.38-40.45.09.06,1.4.41,1.85,0a.77.77,0,0,1,.81-.09,1.25,1.25,0,0,0,1.3-.41c.34-.31.34-.4.56-.38.65.09,1.08-.3,1.22-1.24.05-.37.09-.75,0-.7a3.7,3.7,0,0,0-.15.55,1.5,1.5,0,0,1-.47.94c-.35.3-.55.13-.4-.32a2,2,0,0,0,.06-1.38c0-.06,0,.17-.09.36-.38,1.47-.79,2.23-1.48,2.4-.33.08-.48,0-.37-.16a3.28,3.28,0,0,0,1.05-2.66,5,5,0,0,1-1.54,2.63,2.23,2.23,0,0,1-2.26.11c-.32-.21.16-.28.88-.29,1.21,0,2.34-1.65,2.16-3,0-.26-.11,0-.21.44-.45,1.49-1.21,2.54-3,2.23a.74.74,0,0,1-.3-.17c-.28-.2-.18-.34.4-.26a2.3,2.3,0,0,0,2.37-2.48c0-.7-.1-.69-.21-.17-.23.77-.79,3-2.86,2.28-.35-.2-.55-.48-.4-.48a2,2,0,0,0,2.72-1.62,3.34,3.34,0,0,0,0-1.92c-.06-.38-.19-.67-.23-1.06a21.66,21.66,0,0,1-.23-3.31c.1-.1.11-.08.46.15a1.76,1.76,0,0,0,1.88.08c.88-.32.81-.26-.12.81a5.32,5.32,0,0,0-.4.53c-.23.45.21.12.54-.3.46-.58.55-.72.65-.72a7.69,7.69,0,0,1-.34,1.88c-.15.57-.15.7.21.85l.63.27c.76.36.68.07.09-.28-.81-.47-.81-.44-.59-1.22a19.41,19.41,0,0,0,.55-2.58c.36-2.22-1.29-3.43-3.48-2.66-.13.06-.27-1.16-.25-1.49,0-.12-.33-.09-.62-.45.09-.08-3.24-4.29-4.79-6.84,9.64,0,19.14-.18,27.87-.15Zm-7.14,7.91,0,0Zm7.53-7.7h9.56V81.08l-.95,0a31.61,31.61,0,0,1-2-4c-.1-.32-.28-.76-.35-.93-.16-.41-.27-.44-.06-.68a1.62,1.62,0,0,0-.07-1.91c-.13-.15-.19-.1-.19-.47a1.55,1.55,0,0,0,0-.68c-.14-.27-.23-.29,0-.59a5.2,5.2,0,0,0,.6-1.21c.19-.65.06-.77.47-.62a1.43,1.43,0,0,0,1.9-1.49,1.5,1.5,0,0,0-1.82-1.45c-.22.06-.27,0-.61-.18a2.46,2.46,0,0,0-.38-.24c-.16-.06-.29-.06-.36-.17a1.21,1.21,0,0,0-1-.6,2.05,2.05,0,0,1-.81-.15c-.17-.09-.66,0-1.27-.11a2.22,2.22,0,0,0-.62.07c-.38,0-.22,0-.3-.33-.47-1.51-1.85-1.33-2.49-.19A5.67,5.67,0,0,0,689,67l-3.72-.06Zm-28.81,0c1.39,1.77,2.73,3.77,4.12,5.58,1.73,2.21,1.78,2.47,1.32,4.69-.26,1.26-.37,1.55-.9,1.45a.87.87,0,0,0-1,.76v.05a1.06,1.06,0,0,0,1.65,1c.47-.25.49-.27.33.54-.22,1.16-.68,2.17-1,2.13-.75-1.62-2.57-.46-2,1.22-.19.29.06.66.15,1a5.14,5.14,0,0,1-1,.38,37.32,37.32,0,0,0-14.79,9.26v-28Zm29.29,3.82a.83.83,0,0,1,.59.22c.45.41.34,1-.28,2a7.58,7.58,0,0,0-.32,4.2,2.82,2.82,0,0,1-.79,2.13.85.85,0,0,1-1.34-1c.21-.41.65-.17.75-.55a37,37,0,0,0-.23-4.24,5.19,5.19,0,0,1,.49-2,1.4,1.4,0,0,1,1.12-.78ZM692,67c-.18.15-.47.15-.51,0a2.11,2.11,0,0,1,.26-.88c.65-.19.45.72.26.88Zm1-1c.53,0,.87,1.34.4,2.14a6.53,6.53,0,0,0-.73,0,3.71,3.71,0,0,1,.08-.7,1.34,1.34,0,0,0,0-.66c-.17-.62-.29-.74.24-.81Zm1,0H694c.53,0,.84,1,.67,2.19,0,.17,0,.34-.1.38a2.53,2.53,0,0,0-.85.16,1.22,1.22,0,0,1,0-.68,2.3,2.3,0,0,0,0-1.47c-.13-.49-.13-.58.16-.59Zm1.33.3c.59.1.63,1.75.4,2.28-.06.08-.28.06-.36.09-.5.15-.41.22-.33-.59a5.62,5.62,0,0,0,0-1.44c0-.2-.06-.34.09-.35a.61.61,0,0,1,.25,0Zm-2.94.64a1.57,1.57,0,0,1-.13,1.36c-.18.28-.29.33-.17.47a.66.66,0,0,1,.09.47c-.11.23.17.27.44.41s.63.64.95,1.39c.11.26.34.18.23-.1a7.2,7.2,0,0,1-.19-.84c-.06-.24,0-.37.28-.3s.36,0,.51,0c.34-.19.56.08.36.23a2.58,2.58,0,0,1-.64.21c-.23.06-.18.29.06.29a7.16,7.16,0,0,0,1.24-.3c1.16-.36,1.22-.55,1.09.13a2,2,0,0,1-1.41,1.78,7.06,7.06,0,0,1-3-.07c-.67-.31-.72-.52-.92-1.12a5.17,5.17,0,0,1-.12-3c.28-.68.26-.61.52-.58a.58.58,0,0,0,.63-.16c0-.07.13-.2.17-.2Zm4.46.49a1.82,1.82,0,0,1-.05,1c-.07.13-.48.13-.64.13a3.51,3.51,0,0,1,0-1.37c.24-.36.54-.07.68.22ZM685,67.22h1.15v.33h-1.36Zm4,0v.37h-1.77V70h1.94v.48h-2.6V67.3H689Zm8.82-.07a1.33,1.33,0,0,1,.32,2.51c-.83.15-1.53.06-1.3-.68a5.38,5.38,0,0,0,.14-1.58,1.15,1.15,0,0,1,.81-.22Zm-13.43.72h1.71v.38h-2Zm3.8.35a.5.5,0,1,1-.51.49.5.5,0,0,1,.51-.49Zm4.83.2c.32,0,.34.53.21.67a.36.36,0,0,1-.57-.16.4.4,0,0,1,.28-.5h.07Zm-9.11.21h2.19V69H684l-.06-.2Zm12.32.13c.3,0,.49.25.3.47s-.88-.17-.31-.47ZM673,69.49c-.49.41-.1.83.55.43,1.4-.85,3.47-.18,4.81.53.26.14.3-.18,0-.41-1.24-1.11-3.89-1.75-5.4-.57Zm21.21-.58c.34,0,.34.43.12.59a.38.38,0,0,1-.4,0c-.2-.08,0-.6.29-.6Zm1.22,0c.4,0,.36.85-.25.55a.32.32,0,0,1,.25-.54Zm-11.34.43h2.13v.35l-2,0Zm-13.75.81c.58.47.41.5-.56.15a2.93,2.93,0,0,0-1.65.11c-.47.19-.58.13-.37-.18a2.35,2.35,0,0,1,2.59-.08Zm2.81.79c-.06.15-.26-.12-.53-.06s-.27.09.13.56.54.56.51.76,0,.41.3.38.28.13.47.31a6.71,6.71,0,0,0,1.22,1c.88.41.49,0-.08-.45-.94-.66-1.26-1.1-.6-.86a3.31,3.31,0,0,0,2.39-.23c.27-.17.45-.41.83-.3.54.17.75-.15.6-.33s-.81-.35-1.34-.71a3.3,3.3,0,0,0-3.13-.1c-.47.28-.64.08-.17-.19,1.85-1,3.31,0,4.5.68.21.13.35.12.35,0,0-.3-.56-.47-.77-.61-1.65-1-3.38-1.34-4.68.1Zm11.23-.9h1.85v.37h-1.71Zm-15,.47c.51,0,1.62.47,1.62.85,0,.15-.3,0-.54-.13a2.74,2.74,0,0,0-1.86-.24c-.52.1-.68.19-.76.12C667.57,70.71,668.83,70.52,669.31,70.52Zm20,.27v.66a1,1,0,0,0-.57,1.84,1.19,1.19,0,0,0,1.84-.41c.08-.13.09-.21.13-.15a1,1,0,0,1,.08.28c.07.35,0,.44-.26.74a1.47,1.47,0,0,0-.19,1.54c.06.13.19.3.17.38a13.63,13.63,0,0,1-3,5.41c-.31.21-.53,0-.38-.37,1.51-3.5-1.38-6.75-2.5-9.88Zm-13.43.61.26,0c-.21,1.62-1.75,1.35-1.81,0h.22c.3,1.21,1.33.72,1.33-.05Zm-8.71,0a.78.78,0,0,1,.11.28v1.08c-.09,1.55-2,1.84-1.88.51a.51.51,0,0,1,1-.12c.25.64.3-.15.3-.41a7.29,7.29,0,0,0,.49-1.36Zm9.35.11a.57.57,0,0,1,.34.19c.13.14.08.21-.22.36s-.47.15-.35-.19.13-.37.23-.37Zm14.51.08s.15.06.13.23-.28.44-.35.38.09-.55.22-.6Zm-16.83.55c0,.11-.11.06-.27-.08s-.18-.26,0-.38.29.36.26.46Zm-5.87-.41c.32,1,1,.91,1.28,0h.26a.88.88,0,1,1-1.75,0Zm-.58.13c.1,0,0,.33,0,.33s-.28-.14-.11-.3l.08-.05Zm2.43.09a.34.34,0,0,1,.17.07c.16.11.13.17-.05.33s-.4.11-.26-.22c.08-.13.12-.19.16-.19Zm21.29.23a2.72,2.72,0,0,1,.65.15,6.88,6.88,0,0,0,3.43-.06c.36-.1.62.53.43,1-.09.2-.07.23.19.5a1.39,1.39,0,0,1,.15,1.58c-.2.41-.19.38.05,1.08a25,25,0,0,0,2.07,4.36l-1.06-.41s-4.79,4.15-8.17,4.33l1.22,1.94a5.75,5.75,0,0,0,5.54-.54,8.29,8.29,0,0,0,3.94,1.36v1.3a8.54,8.54,0,0,1-3.92-1s-1.14.48-2.28.85l6.39,6.71v1.12s-2.73-2.58-5.54-5.5l.06,14.33,5.53.11c-.17,3.73-.11,6.1-.06,10.37a36.54,36.54,0,0,1-9.53,7.08,27.74,27.74,0,0,1-4-5s.11-.11.09-.15-.23-.08-.27-.13c-.69-1-2.3-3.94-2-4,.49,0,2.77-.25,3.24-1.62a2.28,2.28,0,0,1,0-.62,5.36,5.36,0,0,0,0-2.62c-.49-1.31,1-.89,1-.81V103a16.58,16.58,0,0,1-6.41,3.73,28.21,28.21,0,0,1,8.14-25.16l-.4,0c-7.4,7.77-9.34,16.32-8.08,25.32,0,0,0,.28.05.38a.49.49,0,0,1-.23.47c-.19.16-.36.26-.34.41s-.24.3-.6.3c-.17-.15-.4,0-.52.11s-.28-.74-.51-.18c-.09.36-.26.38-.66.21s-.26.05,0,.34a1.88,1.88,0,0,1,.55,1.06.68.68,0,0,0,.33.9l.11,0s-.3,1.11.48,1.07a7.29,7.29,0,0,1,.88.13.41.41,0,0,1-.12.41l-.54-.28-.14.66-.72-.05,1.77,2.21.21-1.73,2.06.26a27.32,27.32,0,0,0,6.4,9.31c0,.12-2.74,1.25-2.74,1.25l-.43-1.34-.34.5-.61-.16-.07.56-.54.18,1,.64-2.48.72c-6.95-11.38-10.08-27.06-1.42-43.77l2.19,0-.43.74.62-.1.17.54.46-.22.43.62.52-1.56s1.55,0,1.74,0a27.47,27.47,0,0,0,3.21-2.78c-.06-.1-3.4,2.43-3.51,2.32s-.34.08-.07-.23A12,12,0,0,0,689.25,79a8.75,8.75,0,0,0,1.33-3.32.65.65,0,0,0,0-.32c-.3-.61-.23-1,.31-1.72.19-.25.2-.31.15-.47a.79.79,0,0,1,.24-.88.4.4,0,0,1,.26-.14Zm-18.42,2.43c1.37.57.27,1.84-.75.73-.52-.6-.94-.57-1.22-.13-.13.19.06.53.23.41s.32-.21.55,0c1.73,1.62,3-.65,1.49-1.22-.19-.09-.45.11-.27.18Zm-5.67-.06h0a1.83,1.83,0,0,1,0,.85c-.22,1.22-1.07,4-2.84,2.67-.7-.55-.06-1.94.77-1.47.65.37.21,1.24-.49.74-.34-.24-.23.26.06.41.49.26,1.38-.19,1.8-1a7.61,7.61,0,0,0,.5-1.69c.09-.41.1-.55.15-.55Zm.15,2.11c.15.88-.52,2.43-1.46,2.66-.72.17-1.62-.3-1.55-.75,0-.13.07,0,.72.15.91.15,1.49-.35,2-1.5a3.75,3.75,0,0,1,.27-.57Zm2.27.41a3.43,3.43,0,0,1-.09.54c-.1.41-.16.57.29.36a1.21,1.21,0,0,1,1.17,0,1.62,1.62,0,0,0,1.54,0c.5-.17.75-.17,1,0,.51.3.34.11.27-.65,0-.53-.19-.46-.37-.26a.52.52,0,0,1-.64,0,1,1,0,0,0-.93,0c-.15.13-.37.14-.67-.06s-.31-.06-.55,0a.6.6,0,0,1-.77-.09c-.19-.15-.29-.1-.29.12Zm-2,.62c.05,0,.06.2,0,.61-.17,1.51-1.33,2.36-2.71,1.62-.6-.35-.52-.6.07-.38.94.35,1.9-.14,2.37-1.38C667.74,77.89,667.82,77.73,667.85,77.73Zm3.35,1.08a1.62,1.62,0,0,0,1.62-.06c.19-.25-.11-.24-.29-.19a2,2,0,0,1-1.24,0c-.69-.3-.64,0-.08.25Zm-7.08.85a17.26,17.26,0,0,1,1.76,2.55,40.37,40.37,0,0,1,3.68,32.62,39.55,39.55,0,0,1-4,8.59l-1.9,0,.65-.75-.88.06,0-.5-.67.22-.32-.75-.62,1.72h-3.52a28.26,28.26,0,0,0,8.33-25.92s.69-.44.79-.69a1.62,1.62,0,0,1,.12-.36c.31-.2.51-.41.66-.36a.31.31,0,0,1,.19.16c.29.43.35.5.51.06s.06-.43.44-.36c.22.12.51.11.49.07s-.33-.41-.48-.61c-.35-.5-.45-.59-.4-.81a.89.89,0,0,0-.37-.78c0-.9-.29-1-1.25-1.18a.84.84,0,0,1,.09-.41l.56.45.2-.84.77,0-2.22-2.17a16.69,16.69,0,0,1,0,1.83c-1-.06-2.06-.41-2.08-.33a28.18,28.18,0,0,0-6.32-9.13l2.43-1.19.69,1.34.17-.76.61.11.1-.49L663,81l-.74-.71Zm14.58,1.57c.09.12.17.13.3.23l-.25.18a1.11,1.11,0,0,0,0-.41Zm-16.29.45a.38.38,0,1,0,.38.38.38.38,0,0,0-.38-.38Zm2,.06a.38.38,0,1,0,.38.39h0a.38.38,0,0,0-.36-.4Zm-6.58.28a19,19,0,0,1,3.68,4.45l0,.28.41.15s2.29,3,2.16,4.33a4,4,0,0,0-2.86,1.26,1.84,1.84,0,0,0-1.71,0,.48.48,0,0,0,.24.41.87.87,0,0,1,1.22-.15c-.1,0-.34,3,.13,3.65.36,1-.58.81-1.21.57l.19,4.74a17.24,17.24,0,0,1,6.34-3.95c2.27,12.15-3.12,20.27-8.77,26.22h3s-2.55,4.15-2.74,5.3c.15.38.55,1.17-.13,1.73a3.73,3.73,0,0,0-.26,1.41c-1.56.05-2.9-.49-4.7.15-.19.06-.23-1-.23-1.18a1.67,1.67,0,0,1,.05-2.34,37,37,0,0,0-2.43-5.29l-1.58-.09a11.93,11.93,0,0,1-.08-3,104.6,104.6,0,0,0,11.37-.05L658,117.95a6.79,6.79,0,0,0-5.29.72s-2.52-1.4-4.27-1.22l.06-1.38a8,8,0,0,1,4.24,1l2.13-.81-6.55-6.91.09-1.15c2.11,2,5.6,5.87,5.6,5.87V99.54H648.4l-.15-2.94-.15-.26L648,94.23l.15-.21,0-.95-.05-.13L648,90.78l.12-.18V89.24c2.71-2.69,9.72-7.23,9.72-7.23Zm4.8.41.65,2.91.44-.55.68.21,0-.67.62-.21Zm22.3.49a.38.38,0,1,0,.38.39h0a.38.38,0,0,0-.36-.38Zm-1.77.24a.38.38,0,1,0,.38.39h0a.38.38,0,0,0-.36-.38Zm-21.63.34a.38.38,0,1,0,.38.39h0a.38.38,0,0,0-.36-.38Zm23,.23-2.62,2.51.74,0,.13.73.66-.3.53.5Zm1.13.84a.38.38,0,1,0,.38.39h0a.38.38,0,0,0-.38-.38Zm-20.87.5a.38.38,0,1,0,.38.39h0a.38.38,0,0,0-.38-.38Zm1.62.32a.38.38,0,1,0,.38.39h0a.38.38,0,0,0-.36-.39Zm-1.48.57c.07,1,.19,2.24.22,3.26l.5-.5.58.23.2-.63.63,0Zm16.16.85a.38.38,0,1,0,.38.39h0a.38.38,0,0,0-.36-.39Zm-17.24.07a.38.38,0,1,0,.38.39h0a.38.38,0,0,0-.36-.39ZM682.6,87a.38.38,0,0,0-.38.38h0a.38.38,0,1,0,.75,0,.38.38,0,0,0-.36-.39Zm-.22.81L680.21,90l.71.07.22.64.46-.41.55.41Zm1.21.49a.38.38,0,1,0,.38.39h0a.38.38,0,0,0-.39-.37h0ZM666.43,89a.38.38,0,1,0,.34.34A.38.38,0,0,0,666.43,89Zm-9.32.31-.55.43a1.66,1.66,0,0,1,.71.56,9.05,9.05,0,0,1-.16-1Zm11.08.26a.38.38,0,1,0,.38.39h0a.38.38,0,0,0-.36-.39Zm-2.7.55a.38.38,0,1,0,.38.39h0a.38.38,0,0,0-.36-.39Zm15.58.77a.38.38,0,1,0,.38.39h0a.38.38,0,0,0-.36-.39Zm-1.48.57a.38.38,0,1,0,.38.39h0a.38.38,0,0,0-.38-.38Zm15.2.09.79.86v12.65h-.77Zm-30.52.09c.64,0,1.35.09,1.58.49s-.4.27-1,.37-.24.19.58.24c1.13.07,1.58.1,1.75.36a2,2,0,0,1,0,.68l-1.29-.06a7.53,7.53,0,0,0-1.26,0c-.16,0-.11.17-.06.22a9.78,9.78,0,0,0,1.14.05c1.62,0,2,.1,2.08.62s-.3.41-2,.23a2.34,2.34,0,0,0-1.24.17c-.18.09.53.18.76.14a12,12,0,0,1,1.6.17c.33,0,0,0-.13.24s-.08.36-.25.46a4,4,0,0,1-1.38.11c-.86,0-1.26.21-.08.26.76,0,.81,0,.87.24.17.55-.19.65-1,.77a6.32,6.32,0,0,1-1.34,0c-1.64-.12-2.21-.51-2.43-1.25-.81-2.74.19-4.41,2.59-4.55h.4Zm16.61.12L679,94.49l.71-.28.34.74.57-.41.57.36ZM667,92.08c.1.12.05.21-.11.3a.67.67,0,0,1-.51,0c-.2-.09-.22-.45-.06-.49a.76.76,0,0,1,.68.24Zm-13.43-.15-.85.94,1.22-.45Zm28.47.41a.38.38,0,1,0,.38.39h0a.38.38,0,0,0-.39-.37h0Zm13.81.33L697.19,94h-.35v.75H698l.62.61h-1.71v.76H699V95.8l.83.77.1,8.48h-4c0-4.18,0-8.21,0-12.38Zm-27.63.92c-.06.18-.19.18-.4.09s-.28-.5,0-.54c.47-.05.55.17.44.45Zm1.27.16a.38.38,0,1,0,.38.39h0a.38.38,0,0,0-.39-.37h0Zm-1.33.29a.62.62,0,0,1,.38.17c.21.21.13.4-.1.53s-.44,0-.52-.36a.25.25,0,0,1,.16-.31h.08Zm11.84,1a.38.38,0,1,0,.38.39h0a.38.38,0,0,0-.38-.38Zm-12.47.47a.32.32,0,0,1,.26.53.36.36,0,1,1-.31-.53Zm11.11.15a.38.38,0,1,0,.38.39h0a.38.38,0,0,0-.38-.38Zm1.34.26-1.69,2.88.68-.28.4.55.43-.38.64.32Zm-13.25.48c.3,0,.4.24.17.46a.33.33,0,0,1-.47,0l0,0c-.26-.19-.06-.47.32-.47Zm14.43,0a.38.38,0,1,0,.38.39h0a.38.38,0,0,0-.37-.39h0Zm-12.29.3a.37.37,0,0,0-.36.38h0a.38.38,0,0,0,.75,0,.41.41,0,0,0-.39-.39Zm28,.09v.81H699v-.81Zm-27.94.72-.81,3,.68-.41.4.44.41-.49.71.19Zm1.45.33a.38.38,0,1,0,.38.39h0a.38.38,0,0,0-.37-.39h0ZM667.7,98a.38.38,0,1,0,.38.39h0a.38.38,0,0,0-.37-.39h0Zm29.16.24V99H699v-.72Zm-17.51,1a.38.38,0,1,0,.38.39h0a.38.38,0,0,0-.37-.39h0Zm17.51.41v.79H699v-.79Zm-43.87.1h.75v13.71l-.73-.78Zm-.31,0,0,12.53-1.42-1.51h.38v-.85h-1.22l-.52-.52h1.75v-.84h-2.08v.51l-1-1.11V99.79Zm26.73.38-1.13,3,.71-.41.37.37.38-.35.65.32Zm-29.88.14v.81h2.08v-.81Zm31.16.16a.38.38,0,1,0,.38.39h0a.38.38,0,0,0-.37-.39h0Zm-2.57,0a.38.38,0,1,0,.38.39h0a.38.38,0,0,0-.37-.39h0Zm-8.88.14a.38.38,0,1,0,.38.39h0a.38.38,0,0,0-.37-.39h0Zm27.61.31v.84H699V101Zm-27.66.47-.32.49-.72-.25,1,3,1.22-3.15-.71.41Zm-19.67.22v.81h2.08v-.81Zm47.33.72v.83H699v-.83h-2.13Zm-47.34.69v.81h2.09v-.81Zm29.85.15a.38.38,0,1,0,.38.39h0a.38.38,0,0,0-.36-.4h0Zm-11.34.41a.38.38,0,1,0,.38.39h0a.38.38,0,0,0-.36-.4h0Zm2.43.07a.38.38,0,1,0,.38.39h0a.38.38,0,0,0-.37-.39h0Zm26.41.05v.75H699v-.75Zm-17.48.35-.45.48-.65-.19,1.47,2.78.74-3-.65.4Zm-29.84.28v.91h2.06v-.91Zm19.68.41a.38.38,0,1,0,.38.39h0a.38.38,0,0,0-.38-.38h0Zm0,.81c-.16.12-.23.32-.4.41l-.69-.3.41,3.79,1.92-3.58-.87.15Zm-19.66.13v.95h2.06v-.95Zm31.33.44a.38.38,0,1,0,.38.41.38.38,0,0,0-.34-.42h-.07Zm-2.43,0a.38.38,0,1,0,.38.41.38.38,0,0,0-.33-.42h-.11Zm-28.88.89V108h2v-.95Zm30.24.21a.38.38,0,1,0,.38.39h0a.38.38,0,0,0-.36-.4h-.07Zm5.35,0c2,.06,2.32.73,2.34,3,0,1.83-.53,2.54-1.83,2.89a8.85,8.85,0,0,1-2.77-.15c0-.16-.26-.52-.32-.81a7.65,7.65,0,0,1,1.31.09c.62.06.79,0,.59-.17-1.18-.28-2-.21-3.11-.41a1.77,1.77,0,0,0-.29-.74c.06,0,1.74.16,2.63.13.4,0,.15-.2,0-.24-1-.15-1.71-.13-2.8-.27a1.06,1.06,0,0,0-.29-.76h1.69c.6,0,1.12,0,1.39,0,.44,0,.4-.21,0-.24s-2.3-.06-2.3-.06a1.62,1.62,0,0,0,.24-.91h.78a8.76,8.76,0,0,0,1.75-.09c.19-.18-.33-.25-.87-.25-.23,0-.58.05-.58-.08a1.36,1.36,0,0,0-.12-.62,6.15,6.15,0,0,1,2.54-.38Zm-17.49.47a.38.38,0,1,0,.38.39h0a.38.38,0,0,0-.36-.4h-.07Zm14.47.08c.25,0,.33.46.09.53s-.55,0-.54-.19S682,107.88,682.14,107.88Zm-12,.41a.38.38,0,1,0,.38.41.38.38,0,0,0-.32-.43h-.1Zm10.79.43c.86,0,.41,1.17-.25.75a.43.43,0,0,1,.2-.78Zm-13.56.95s0,0,0,.06l.2,3.6,2.06-3.36-.81.31-.35-.54-.44.35c-.18.15-.53-.41-.62-.41Zm12.76.37c.38.05.64.45.37.63-.64.22-1-.64-.42-.66Zm-.92.79a.38.38,0,1,0,.38.41.38.38,0,0,0-.32-.43h-.1Zm1.46.32a.34.34,0,0,1,.16.63.46.46,0,0,1-.36,0c-.38-.29-.18-.59.21-.62Zm-14.17.59a.38.38,0,1,0,.38.39h0a.38.38,0,0,0-.32-.43h-.11Zm28.9.45-1.41.48v.67a3.71,3.71,0,0,0,1.41-1.15Zm-13.15.32c.24.11.31.44.1.55a.78.78,0,0,1-.72-.07c-.28-.46.32-.59.62-.48Zm-13.24.13a.38.38,0,1,0,.38.39h0a.38.38,0,0,0-.38-.38h0Zm-1.56.66a.34.34,0,1,0,.34.34h0a.34.34,0,0,0-.33-.34Zm15.75.57a.38.38,0,1,0,.38.39h0a.38.38,0,0,0-.38-.38h0Zm-17,0v3.4l2.2-2.78-.77.17-.33-.69-.48.32Zm14.18.78a.38.38,0,1,0,.38.39h0a.38.38,0,0,0-.38-.39h0Zm11.17,0-.37.64,1-.59Zm-9.66.45a.38.38,0,1,0,.38.39h0a.38.38,0,0,0-.39-.37h0Zm1.28.41-.45.66-.6-.19-.17.62-.72,0,2.33,2.06Zm-18.14.26a.38.38,0,1,0,.38.4.38.38,0,0,0-.38-.39h0Zm34.83.92v27.95h-13L681.44,137a10.17,10.17,0,0,1,.46-4.14c.53.37,1.7.17,1.66-1.28a1.32,1.32,0,0,0-2.19-.72,4.39,4.39,0,0,1,.94-2.71c.36.34.45.83,1.27.69a1.13,1.13,0,0,0,.81-1.53,2.06,2.06,0,0,1-.1-.59,3.91,3.91,0,0,0,0-.6,4.05,4.05,0,0,1-.06-.44c6.07-1.4,11.34-5.13,15.67-9Zm-32.17.11a.38.38,0,1,0,.38.41.38.38,0,0,0-.38-.39h0Zm-1.79.38a.38.38,0,1,0,.38.39h0a.38.38,0,0,0-.4-.37h0Zm18.74.19a.38.38,0,1,0,.38.41.38.38,0,0,0-.37-.39h0Zm-20.1.41-.62,3.6,2.58-2.68h-.7l-.14-.61-.66.21Zm17.53.77a.38.38,0,1,0,.38.41.38.38,0,0,0-.38-.39h0Zm1.67.41a.38.38,0,1,0,.38.39h0a.38.38,0,0,0-.41-.35h0Zm-20.81.47a.38.38,0,1,0,.38.39h0a.38.38,0,0,0-.41-.35Zm22.3.34-.62.47-.57-.35-.13.76-.49.26,2,1.44Zm1.5,1a.38.38,0,1,0,.38.41.38.38,0,0,0-.34-.42h-.05Zm-21.42.13a.38.38,0,1,0,.38.39h0a.38.38,0,0,0-.36-.4h0Zm-1.69.47a.38.38,0,1,0,.38.41.38.38,0,0,0-.36-.4Zm22.13,1a.38.38,0,1,0,.38.41.38.38,0,0,0-.38-.38h0Zm-1.59.34a.38.38,0,1,0,.38.39h0a.38.38,0,0,0-.38-.36Zm-14.67.55h0a.66.66,0,0,1,.06.58c-.06,0-.33-.29-.26-.37s.17-.2.2-.2Zm-8.59.6a2.6,2.6,0,0,1,.45.06,2.14,2.14,0,0,1-.19.53,4.81,4.81,0,0,0-.07,3.72c.79,1.71,3,5.73,2.84,6.1l-4.9,0,0-.76c1.38-.06,1.6-.91,1.26-1.62a1.19,1.19,0,0,0-1.52-.51c-.88.37-.94.81-1.25,1.5l-.14-.18a1.58,1.58,0,0,0,.33-1.09c0-.41,0-.28.1-.49a1.85,1.85,0,0,0,.27-1.93c-.09-.67,2.3-5,2.84-5.35ZM649.7,124c1.4,1.13,2.61,4.93,2.54,5a1.66,1.66,0,0,0-.08,2.35l.08.08a2.24,2.24,0,0,0,.15,1.08,3.89,3.89,0,0,0-.64,2h-.55a1.58,1.58,0,1,0-.11,3.14c.32,0,.43,0,.62.14s.37.49.7.36a.64.64,0,0,1,.34.2,1,1,0,0,0,1,.42,2.08,2.08,0,0,1,.51.13.87.87,0,0,0,.83.16.49.49,0,0,1,.37,0,.84.84,0,0,0,.81,0c.31-.16.38.1.36.34a1.07,1.07,0,0,0,.72,1.28c1.11.35,1.67-.34,1.91-1.72.06-.3.11-.66.11-.66l3.73.1-5.37,6.29h-9.31V124c.4,0,.86,0,1.26,0Zm33.49,1.12c.68.27.73.75.06.54a2,2,0,0,0-2.53,1.31,1.33,1.33,0,0,1-.12.35c-.15.19-.15,0-.1-.52a1.89,1.89,0,0,1,1.77-1.84A2.92,2.92,0,0,1,683.19,125.16Zm-.34.74a1.21,1.21,0,0,1,.81.28c.26.28.18.47,0,.46a2,2,0,0,0-2.55,1.26c-.28.72-.33.34-.21-.22a2.13,2.13,0,0,1,2-1.78Zm-6.4.28a1.49,1.49,0,0,0-1,.27c-.37.35-.06.36.61.13a2.48,2.48,0,0,1,1.35.08c.34.12.45.17.43.06,0-.3-.75-.51-1.42-.51Zm7.5,1.18c.17.41.06,1.09-.53,1.16s-1.06-1.11.21-.9c-.17-.47-.74-.34-1-.22-.58.26-1,.81-1.32,1.88-.11.31-.18.47-.22.45a1.94,1.94,0,0,1,.06-1.12c.28-1.05,1-1.69,1.67-1.71a1.11,1.11,0,0,1,1.15.47Zm-10-.46c-.06,0,0,.23.21.58a1.79,1.79,0,0,1,.16.49c0,.19.14.23.35.11s.28-.24.62-.09a.92.92,0,0,0,.93.11c.16-.09.26-.09.57,0a.82.82,0,0,0,.69,0,.93.93,0,0,1,.85.05c.09.09,0,0,.22-.48.09-.21.21-.46.18-.53s-.36,0-.71.1a1.28,1.28,0,0,1-.72-.07,2.19,2.19,0,0,0-1.71.07,2.76,2.76,0,0,1-1.6-.32h0Zm1.49,2.05a.88.88,0,0,0-.81.51c-.17.41.12,1.17.54,1.22s.36-.18.17-.24-.63-.51-.41-.88.61-.25.92.06c.64.62,1.37.66,1.51.12,0-.21-.12-.5-.37-.41a1.27,1.27,0,0,1-1-.18,1,1,0,0,0-.56-.18Zm6.75,2c1.62-.1.93,2.16,0,1.58-.34-.21-.19-1,.71-1-.88-.69-1.47.15-1.26,1.1a7.74,7.74,0,0,0-.38,1.22c-.2.38-.35-.62-.15-1.58s.52-1.34,1.1-1.38ZM673,131c-.34,0,0,.37.06.41,1,.81,1.51,1.31.7,1-1.33-.32-1.67.06-2.68.51-.19.09-.24,0-.46,0-.89-.27-.81.3.11.81,1.4.77,2.56.94,3.64.37.7-.37.74-.13.09.28-1.11.66-2.29.56-4.09-.58-.58-.37-.66-.12-.07.26,1.36.83,3.19,1.59,4.69.36.3-.27.35-.41.58-.29.6.3.4-.23,0-.72-.15-.17-.25-.32-.24-.44,0-.43-.2-.43-.4-.41s-.23-.07-.54-.43A4.29,4.29,0,0,0,673,131Zm-13.58,2.3c-.56,0-.69.07-.55,1.25,0,.22.12.88.15,1.13.34,3.08.06,4.46-.78,4.82a1,1,0,0,1-.81,0c-.53-.22-.75-.87-.37-1.66a4.8,4.8,0,0,0,.28-.72l.25-.92a8.76,8.76,0,0,0,.2-3.07,2.08,2.08,0,0,1,.12-1.34c.4-.76.68-1.15,1.54-1.16a.84.84,0,0,1,0,1.68Zm20.77-.07h-.26c-.32-1.08-1-.73-1.09,0h-.22c0-1.44,1.81-1,1.58,0Zm-24.83-.81c1.8.18,2.13.64,2.28,2.84a4.71,4.71,0,0,1-.22,2c-.27.13-.53-.11-.92.13-.21.13-.17.15-.26,0a2.41,2.41,0,0,1,.15-1.15c.13-.43-.09-.68-.69-1.22a2.16,2.16,0,0,1-.45-.62c-.31-.85-.47-.47-.21.26.13.32.16.47-.23.34a.72.72,0,0,0-.6.11c-.51.11-.92-.15-.51-.32a4.12,4.12,0,0,1,.87-.25q.16,0,.16-.07c0-.21-1-.19-1.68.06-.9.41-.94.34-.86-.31.21-1.65,1.72-1.85,3.16-1.74Zm17.64.15a.87.87,0,0,1,.82.92v.06h-.22c-.1-.86-.9-.9-1.11.06h-.32c.19-.72.52-1,.83-1Zm5.36,0c.18.11.06.41-.14.47s-.3-.15-.25-.25a.81.81,0,0,1,.41-.22Zm2.06.18a.3.3,0,0,1,.31.24c0,.26-.18.2-.25.18s-.17-.41-.07-.41Zm-6.33.2c.34,0,.46.47.08.5-.16,0-.17-.38-.07-.49ZM672,133s0,.35-.11.41-.38,0-.37-.12.32-.29.48-.29Zm5.9.86a3.32,3.32,0,0,0,2.27.21c.29-.11.52-.24.52-.12s-.23.33-.64.44a2.11,2.11,0,0,1-2-.3c-.17-.13-.22-.24-.1-.24Zm-.27.37a2.75,2.75,0,0,0,2.83.23c.34-.12.36,0,.36.21-1.52,1.38-3.43,0-3.18-.43Zm-25.64,1c-.26.53-.4,1.84-.81,2.22C648.31,137.25,650.17,133.38,652,135.18Zm17.89-.43c-.16.09,0,.5.24.62,2.21,1,3.34,1.08,4.6.64a1.26,1.26,0,0,0,.83-.81c0-.25-.3-.28-.9,0-1.79.71-2.91.16-4.36-.4a.59.59,0,0,0-.41,0Zm-8.46,0V138l-2.11,0,0-.48,1.58,0,0-2.33H659.1v-.47h2.36Zm.49,0H664l.11.33h-2.2Zm-8.46,1a.4.4,0,0,1-.48.05c-.22-.23,0-.65.36-.64s.4.35.12.59Zm1-.53c.32,0,.4.3.18.54s-.25.16-.4,0a.36.36,0,0,1,.22-.58Zm-2.07.08a.21.21,0,0,1,.21.09c.19.41-.44.68-.57.38s.15-.45.36-.46Zm11.86,0,.12.41h-2.43v-.41Zm-8.65.12c.36,0,.3.41.14.58s-.57.18-.49-.18a.43.43,0,0,1,.36-.38Zm-1.94,1.22c-.13.46.15,1.39.06,1.49s-.46.1-.59,0c-.44-.28-.47-2,0-2.05.27.14.45-.11.58-.15s0,.19,0,.68Zm6.39-.68a.44.44,0,1,1-.43.44h0a.43.43,0,0,1,.43-.44Zm1.91.06h2.47a.51.51,0,0,1,.09.49h-2.56v-.5Zm-7.27.06c.11,0,.17.24.09.52a3.31,3.31,0,0,0,0,1.49c.06.21.13.35.09.41s-.52.06-.69-.21c-.4-.77-.34-2.19.15-2.08C654.46,136.4,654.57,136.26,654.68,136.18Zm-2.18.19a6.14,6.14,0,0,0,0,1.37c0,.09-.32.05-.49,0-.4-.2-.3-.71-.22-1.12s.29-.34.54-.38.32,0,.22.15Zm3.37.06c.13,0,.15.09.12.5a3.47,3.47,0,0,0,0,.88c.11.63.12.81,0,.93a.48.48,0,0,1-.63-.07c-.4-.32-.4-1.89-.11-2,.29.07.47-.16.64-.21Zm8.54.47-.36.49h-2.11v-.49Zm-7.52.66c.33,0,.28.6.1,1s-.26.25-.49,0,0-1,.39-1Zm6.88.17-.3.28h-1.53v-.28Z" transform="translate(-610.25 -37.99)"/><path id="path3872-3-7-5" class="cls-3" d="M653.44,125.94l-2.56-2c3-.07,6.1,0,9.14.06l-3,2.2c-.62-.69-1-1.62-1.88-2.07C654.44,124.37,654,125.32,653.44,125.94Zm22.36-.74c-.07,0-.12-.15-.17-.47a4,4,0,0,0-4.48-3.24c0-.14,4.65-4.43,7.4-7.79.83,2.57,3.35,8.44,3.24,8.42s-.73,0-2.62,0c-1.72.79-2.92,1.56-2.86,2.66,0,.41-.1.55-.23.52l-.29-.06Zm8.5-11.56a3.69,3.69,0,0,0,3.17-1.39c1.6-.27,2.58.79,3.28,1.92.9.55.78,0,1-.81l2.23-.66v.72a11.38,11.38,0,0,0-1.71,1.34l-.68,0-.4.53a44.76,44.76,0,0,1-4.69,2.52s-2-2.56-2.18-4.12Zm-30.31.23,0-14.24c1-.07,2.86-.06,2.86-.06a8.8,8.8,0,0,1,2.92-2.83,48,48,0,0,1,.18,5.19c-2.88,3.57-4.48,8-2.71,14.54l-1.07-.12Zm15.93.81a49.94,49.94,0,0,0,1.72-9.1l5.49-.08.11,1.91Zm18.69-6.48-.1-5.33c4-4.86,4.24-9.1,2.76-14.45,1.32.31,2,1.36,3.26,2.8v13.88c-.87.13-3,.26-3,.26-.06.65-1.9,2.21-2.87,2.84Zm-16.95-8.42-.24-2.35,7.13-6.92a72.31,72.31,0,0,0-1.51,9.26Zm-11.83-7.34c-.51.34-2.39-1.64-2.69-3,.47-.64,4.6-2.7,4.6-2.7s2.43,3.14,2.32,4.45a5.1,5.1,0,0,0-2.84,1.26C660.78,92.53,660.62,92,659.84,92.44Zm-3.24-2.66c.58.09.21.88.12,1.46l-3,.91a21.77,21.77,0,0,1,2.92-2.37Zm9.88-7c.62,0,1.28.24,1.75,0a1.72,1.72,0,0,1,.93-.11c.91.28,1.22-.73,1.8-.73.75,0,1.16-.53,1.17-1.6,0-.46,0-.51.13-.56a.41.41,0,0,1,.56.31c.54,2,1.89,3.72,4,3.58-1.7,1.76-6.88,7.17-6.88,7.17a52.72,52.72,0,0,0-3.5-8.1Zm22-1.69,3.12-2.3,1.87,2.3,1.62-2.2,3.11,2.23s-6.48.1-9.72,0Z" transform="translate(-610.25 -37.99)"/><path id="path3870-4-7-1" d="M690.25,60.32l-28.67.19,5.57,7.55c5.92-1.22,11.07-.43,16.41.52Zm-.73.38-1.91,2.39c-.53-.49-1.71-.31-1.54.75-1.46-.77-1.77,1.35-.53,1.26-.15.4-1.41.53-1.76-.23-1.29.73-1.68,0-2-.44,1.62,1.13,2.43-1.19.63-1.32a.91.91,0,1,0-1.67-.22c-1.66-.38-1.28,2-.06,1.51a1.55,1.55,0,0,1-2.36.16c-.67.51-1.94.53-2.29-.29,1.85.38,1.65-2.1,0-1.53.87-1.9-2-1.64-1.33-.09-1.66-.06-1.29,2,.17,1.66a1.74,1.74,0,0,1-2.47.06,1.49,1.49,0,0,1-2.3-.12c1.32.53,1.75-1.72.09-1.59.43-1.45-2-1.62-1.44,0a.8.8,0,1,0,.09,1.51c.09.59-1.07,1.15-1.79.58-.53.29-1.1.75-1.78.07,1-.17,1.22-2-.47-1.57.08-1.1-.54-1.15-1.3-.88l-1.22-1.68Zm-19.78,2.69c-.09.2-.25.34-.21.5a1.93,1.93,0,0,0,.34.55c1.43,1.9,4.34,1.83,5.21-.13.18-.36.14-.45-.07-.75a.45.45,0,1,1,.68,0c-.49.63.86,2.06,2.22,2.29,1.74.29,3.39-1,3.16-2.07,0-.06,0-.12-.06-.19-.19-.93,1.27-.49.75.11-.2.21-.3.28-.28.51.4,2,2.79,2.18,3.91,1.57-1.45,2.4-3.75.55-4.16-1.13-2,3-4.49,2.37-5.85-.26.16.16-2.69,4.71-5.92,0-1.37,3.75-3.87,1.21-3.69,1.06a2.22,2.22,0,0,0,3.43-1.59c0-.25-.16-.26-.26-.46-.54-1,1.22-1,.81-.09Zm-5.39.25c.26,0,.3.13.26.4Zm22.24.7-.38.48c-.09-.23-.09-.45.38-.48Zm4.09.16c-.89,0-1.58,1.29-1.53,3,0,.81.16,2.83.22,3.14s0,1-.15,1.05c-.4.16-.53.26-.64.45a.9.9,0,0,0,.36,1.21l.16.07a1.11,1.11,0,0,0,1.28-.6,2.84,2.84,0,0,0,.4-1.16,4.05,4.05,0,0,0,0-1.42,5.82,5.82,0,0,1,.34-3.33c.72-1.24.7-2,0-2.3a1.06,1.06,0,0,0-.41-.06Zm0,.19a.73.73,0,0,1,.43,1.38.76.76,0,0,1-.77-.06c-.31-.18-.26,0,.05.26s.53.26.33.9a7.84,7.84,0,0,0-.18,2.63c.28,2,0,3-.81,3.37a.74.74,0,0,1-1-.4h0c-.18-.53.14-1,.92-.85A9.39,9.39,0,0,0,689.5,70c-.28-2.43-.17-4.13.27-4.72a1.21,1.21,0,0,1,.87-.58Zm7,2.51a1.57,1.57,0,0,0-.77.22s0,1.09-.06,1.26c-.18.92-.13,1,.3,1.17A1.37,1.37,0,0,0,699,68.38,1.29,1.29,0,0,0,697.68,67.19Zm.14.15a1.19,1.19,0,0,1,1,1.28,1.12,1.12,0,0,1-1.18,1.06l-.2,0c-.19,0-.38-.06-.45-.21s.08-.27.51-.27.55-.06.71-.33c.31-.53-.09-1.22-.59-1.07-.17,0-.2.12,0,.18.62.28.4.68.17.83s-.68-.07-.75-.23l0-1a1.07,1.07,0,0,1,.7-.2Zm-6.35,4.73a1.79,1.79,0,0,0-.35.22.85.85,0,0,0-.18.93c.05.15,0,.18-.15.43-.54.71-.61,1.07-.33,1.71.13.29.13.29,0,.68a15.2,15.2,0,0,1-2.58,4.83,1.39,1.39,0,0,0-.23.41,1.21,1.21,0,0,0,.4-.09c1.11-.56,2.28-1.64,3.36-2.35-1.72,1.41-3.55,2.68-3.55,2.68l2.34.13a27.57,27.57,0,0,0-8.1,25.24,13.24,13.24,0,0,0,6.39-3.7c0,1.28,0,4.7.05,4.7s-1.48-.58-1.12.68a6.78,6.78,0,0,1-.06,3.44s.16.11.15.15-.24,0-.24,0a3.14,3.14,0,0,1-2.84,1.31c-.27,0-.16.35-.13.49a18.7,18.7,0,0,0,2,3.73l.32,0-.18.17a8.22,8.22,0,0,0,.52.76v.17s.66.93,1,1.37c0,0,.08,0,.11,0l.63.75s0,.09,0,.11c.38.41,1.11,1.26,1.11,1.26l.15,0,.58.66c4.82-2.22,9.85-7.14,9.8-7.13l0-10.58h-5.7l0-14,5.69,5.71,0-1.62c-1.29-1.25-6.48-6.57-6.48-6.57a6.05,6.05,0,0,1,6.27.16V87.33A5,5,0,0,1,696.54,86l-1.07,0c-2,1.52-3.35.81-4.86.51l-1-1.51,10.59,0-.08-3.64-1.62,0-1-.78,1.22.52a1.56,1.56,0,0,0-.26-.59,24.82,24.82,0,0,1-2-4.05c-.24-.7-.24-.68,0-1.09a1.49,1.49,0,0,0-.15-1.64c-.26-.27-.25-.33-.17-.53a.72.72,0,0,0-.49-1,7,7,0,0,1-4.11,0Zm4.12.29c.35,0,.4.15.4.41,0,.49-.66.67-.94.74-1.36.32-3.73.13-3.88-.51-.11-.47.18-.74,1.14-.5a7,7,0,0,0,3.28-.13Zm-4.39,1.36a.43.43,0,0,1,.36.38,1.52,1.52,0,0,1-.34.94c-.43.34-.81-.19-.53-.77.17-.33.34-.55.52-.55Zm4.64.07a.49.49,0,0,1,.26.07c.34.25.37,1.1.05,1.22s-.63-.22-.63-.76c0-.33.12-.53.32-.53Zm-1.09.17A.46.46,0,0,1,695,74a1.14,1.14,0,0,1,.14,1.31.49.49,0,0,1-.81-.25c-.17-.55.09-1.09.47-1.11Zm-2.43,0c.41,0,.51.94.11,1.33s-.86,0-.7-.64c.1-.32.28-.66.61-.69Zm1.19.15c.61.11.56,1.62-.24,1.47-.44-.32-.43-1.45.26-1.47Zm-2.67,1.62.86.08s-1.38,2.9-2.58,3.67A23.3,23.3,0,0,0,690.84,75.76Zm5.18,0a42.36,42.36,0,0,0,1.71,4.15,20,20,0,0,1-2.84-4.08Zm-4,.13h.57a4.39,4.39,0,0,0,.91,1.93,8.75,8.75,0,0,0,.75-1.88h.45c.17.11-.53,2.77-1.22,3.1A5.72,5.72,0,0,1,692,75.92Zm-.24.63a9.44,9.44,0,0,0,1.68,3.08A6.22,6.22,0,0,0,695,76.75l2.47,3.52L695,78.61a12.24,12.24,0,0,1-1.6,2.22,28.94,28.94,0,0,1-1.82-2.39,19.61,19.61,0,0,1-2.77,2.09,19.61,19.61,0,0,0,2.91-4ZM691.5,79l1.67,2.07L688.72,81Zm3.62,0,2.81,2-4.18,0Zm-22.36,1a1.62,1.62,0,0,0,.05.2c.5,2.06,1.87,3.78,3.94,3.58l-6.8,6.89a40.24,40.24,0,0,0-3.4-7.83l.74.15a1.77,1.77,0,0,0,.76,0c.17,0,.31-.14.46-.17a1.56,1.56,0,0,1,.77.1c.47.09.79-.17,1.37-.7.15-.14.21-.11.41-.11.73,0,1.21-.64,1.12-1.62l0-.44-.09.49c-.17.93-.3,1.33-1.22,1.37-.22,0-.3.16-.65.46s-.83.46-1.18.3-.4-.07-.72.09a2.13,2.13,0,0,1-1.43,0c-.7-.2-.61-.13-.61-.13a40.65,40.65,0,0,1,5.37,20.52,40.21,40.21,0,0,1-5.86,20.32s.49,0,.9-.09a.81.81,0,0,1,.54.07,1,1,0,0,0,.5,0,3.65,3.65,0,0,1,.7,0c.5.07.53,0,1.07-.53,1.53-1.51,1.44-1.46,2.55-1.42a3.88,3.88,0,0,1,3.56,3c.07.23.16.55.17.55l-.12-.46a4.06,4.06,0,0,0-4.25-3.29l7.22-7.35a45.81,45.81,0,0,0,3.16,8.08,2.86,2.86,0,0,0-1.28-.09,4.45,4.45,0,0,1-1.24,0,1.45,1.45,0,0,0-1,.48,2.43,2.43,0,0,1-.73.5,1.61,1.61,0,0,0-1.22,1.74c0,.18,0,.41,0,.49a.23.23,0,0,0,0,.06l.05-.06a1.74,1.74,0,0,0,.2-.65,1.39,1.39,0,0,1,1-1.31,5.67,5.67,0,0,0,.81-.52c.63-.51.84-.62,1.35-.51a2.35,2.35,0,0,0,.93.06,1.79,1.79,0,0,1,1,0c.34.09.75.17.75.17-7-14.26-6.76-27.48.14-40.91,0,0-2,0-2.13.08a1.94,1.94,0,0,1-.55-.05c-.55-.1-.43,0-1.75,1.3-1.62,1.66-4.22.34-5-2.43a1.25,1.25,0,0,0-.14-.34l-.07-.09Zm6.61,1.62c.3,0,.53.11.49.4l-9.63,9.58-.15-.6Zm2,.06c-.12.24-.44.53-.58.76l.52.66-.29.53-.81-.69-1.53,1.53L680,86l-1.22,1.24-.4-.46.64-.68-1-.94-1.75,1.73,1.43,1.47-1,1-.4-.41.54-.6-.93-1-1.62,1.69,1.29,1.46-1,1-.44-.47.48-.51-.92-1L672,91.22l1.35,1.49-1,.92-.35-.38.48-.52-.91-1-1,.95-.17-.65,10.2-10.29Zm.59.15-.43.87-.33-.37.43-.45Zm-24.06.06a42.54,42.54,0,0,0-9.8,7.27V90.6l-.13.17.06,2.17.09.12,0,.89-.14.23v2.43l.18,0,0,3h5.67v14.23s-3.34-3.72-5.74-5.92v1.66l6.35,6.66a4.91,4.91,0,0,0-1.86.65,7,7,0,0,0-4.46-.91v1.69a6.24,6.24,0,0,1,4.48,1.15,5.64,5.64,0,0,1,5.27-.73,16,16,0,0,0,1.56,2.25l-11.25.09v3.43H650a22,22,0,0,1,2.39,5.14,1.67,1.67,0,0,0,0,2.43,1.45,1.45,0,0,0,.31,1.26,5.78,5.78,0,0,1,4.25,0c.4.12.56-.35.55-.94,0-.34,0-.49.22-.71a1.46,1.46,0,0,0,.14-1.67c0-1,3-5.83,3-5.74l-.61.22H657.7c6.92-6.7,9.81-14.39,9.2-23.08a13.88,13.88,0,0,0-.47-3.19c-2.43,1.09-4.42,1.89-6.36,4L659.94,97a1,1,0,0,0,1.15.14c.22-.15.24-.3,0-.85a6.41,6.41,0,0,1-.15-3.09,2.46,2.46,0,0,0,.06-.41c0-.24,0-.25,0-.25s.29,0,.32,0a4.4,4.4,0,0,1,2.8-1.25l0-.54a19.1,19.1,0,0,0-2.22-4,.83.83,0,0,0-.34,0l.17-.18a30.51,30.51,0,0,0-3.83-4.58h0Zm0,.28.73.68a38.66,38.66,0,0,0-10.27,7.56l0-1.24a43.74,43.74,0,0,1,9.51-7Zm22.32,1.24.44.44-.61.71.4.41-.22.54-1-1Zm-21.7.06a.41.41,0,1,1-.4.41.41.41,0,0,1,.4-.41h0Zm29.74.58c7.08,8,3.45,19.63-6,22.43l-.11-.66a12.81,12.81,0,0,0,5.59-21Zm-28.5.08.45.53a38.17,38.17,0,0,0-11.79,9.12l0-1.07A40.5,40.5,0,0,1,659.73,84.15Zm-2.6.16a.41.41,0,1,1-.4.41.41.41,0,0,1,.4-.41h0Zm-1.26.81a.41.41,0,1,1-.41.41.41.41,0,0,1,.41-.41h0Zm4.2.24a.41.41,0,1,1-.41.41A.41.41,0,0,1,660.07,85.37Zm18,.29.4.45-.65.67.94,1,.9-.88-.46,1.32-7.93,8-.17-.85.62-.64-.95-1-.17-.65.94-.89.4.41-.55.64.89.89,1.62-1.5-1.33-1.48,1.1-1.08.38.38-.53.53.92,1,1.65-1.62L674.74,89l1.09-1.09.4.41-.55.67.94.92,1.62-1.62-1.33-1.42Zm-23.43.28a.41.41,0,1,1-.4.41.41.41,0,0,1,.4-.41Zm6.53.08.32.53c-4.81,2.46-8.13,4.94-13.06,10.61v-.71A38.47,38.47,0,0,1,661.16,86Zm-2.43.06a.41.41,0,1,1-.4.41.41.41,0,0,1,.4-.41h0Zm37.2.16a6.24,6.24,0,0,0,3.78,1.45l0,.92A6.08,6.08,0,0,1,696,87.51a5.86,5.86,0,0,1-4.75.66l-.63-1.37a5.09,5.09,0,0,0,5.32-.55Zm-9.58.25a1.42,1.42,0,0,0,.4.36c1.87-.49,2.43,1.46,1.58,2.58l.25.81a2.17,2.17,0,0,1,.86.35,1.58,1.58,0,0,1,.65,1.45c.06.63-.87,1.22-.92,1.17v.9a3.59,3.59,0,0,1,.78.75,1.42,1.42,0,0,1-.34,2l-.07,0a1.44,1.44,0,0,1-.87.29l-.43,1a1.22,1.22,0,0,1,.55.85,1.62,1.62,0,0,1-.77,1.6,2.07,2.07,0,0,1-1.48,0l-.61.62a2.13,2.13,0,0,1,.12,1.17,1.52,1.52,0,0,1-1.66,1,1.62,1.62,0,0,1-.89-.41l-.68.26s0,.87-.33,1.14a4.51,4.51,0,0,1-.49.36l-.09-.6a1.18,1.18,0,0,0,.38-1l1.47-.73a1.44,1.44,0,0,0,.68.51,1,1,0,0,0,1.15-.85,3.28,3.28,0,0,0-.22-.76l1.24-1.31a1.4,1.4,0,0,0,1.11.08,1,1,0,0,0,.47-1.1,1.49,1.49,0,0,0-.45-.65l.69-1.78a1.25,1.25,0,0,0,.78-.22,1,1,0,0,0,.23-1.32,1,1,0,0,0-.68-.45l.05-1.85s.7-.34.78-.75c.11-.61-.14-1-.88-1.17-.41-.1-.41,0-.41,0l-.59-1.72a1,1,0,0,0,.16-1.78,1.43,1.43,0,0,0-1.19,0l-.55-.58Zm-24.65.34a19.67,19.67,0,0,1,2.2,4,2.22,2.22,0,0,1,0,.41,4.41,4.41,0,0,0-2.78,1.25c-.45-.23-.64-.51-1.45,0a5.8,5.8,0,0,1-2.47-3,46.55,46.55,0,0,1,4.49-2.58Zm-8.3,0a.41.41,0,1,1-.4.41.41.41,0,0,1,.4-.41h0Zm3.93.09a.41.41,0,1,1-.4.41.41.41,0,0,1,.4-.41Zm28.35.51a11.32,11.32,0,0,1,2,4.36,9.44,9.44,0,0,1-.9,6.25,9.54,9.54,0,0,1-5,4.39l0-.72c0,.16,2.43-.87,4.08-3.2a9.32,9.32,0,0,0,1.39-5.59,10.13,10.13,0,0,0-1.91-4.88Zm-33.55.36a.41.41,0,1,1-.4.41A.41.41,0,0,1,652.12,87.8Zm3.92,0a.41.41,0,1,1-.4.41A.41.41,0,0,1,656,87.8Zm35.38.71c.92.1,2,1.79,3.07,2.76v13.79l-3.06.06a6.88,6.88,0,0,1-2.79,2.88v-5.17c5-5.46,3.64-11.43,2.77-14.32ZM651,88.67a.41.41,0,1,1-.41.41.41.41,0,0,1,.41-.41Zm3.78.08a.41.41,0,1,1-.4.41.41.41,0,0,1,.4-.41Zm38.8,0,6.25,6.39,0,.94-7-7.26Zm-36.51.6.17.81c-.2-.32-.21-.44-.56-.5Zm-3.39.23a.41.41,0,1,1-.4.41A.41.41,0,0,1,653.68,89.61Zm-3.74.12a.41.41,0,1,1-.4.41.41.41,0,0,1,.4-.41h0Zm35.16,0,1.22.89-.41,1.6-1.26-1.15Zm-28.51.13.22.13-.26,1.09-2.84,1a21.36,21.36,0,0,1,2.88-2.27Zm.47.51a14.72,14.72,0,0,0,1.18,3c-.36.19-1.68.94-1.67,1.3.19.64,1.57,1.22,1.57,1.22A16.06,16.06,0,0,0,656.69,99a3.5,3.5,0,0,1,.25-2.69,6.48,6.48,0,0,1-1.71-1.14,3.58,3.58,0,0,1,1.84-1.94c0,.06-.41-2.53,0-2.84Zm-4.61.2a.41.41,0,1,1-.4.41.41.41,0,0,1,.4-.41h0Zm31.63,0c1.84,3.49.75,6.52-2.2,8.68l.07-.81a5.71,5.71,0,0,0,1.86-7.24Zm-35.13.1a.41.41,0,1,1-.4.41.41.41,0,0,1,.4-.41h0Zm29.49,0a42.6,42.6,0,0,0-1.48,8.85l-5.26,0-.2-1.85Zm-21,.14,2.16,2-.12.24-1,.13a19.65,19.65,0,0,1-1-2.4Zm-.93.58h0l.06.76a21.67,21.67,0,0,0-6.88,4.05,8.91,8.91,0,0,1,1.83-2.1C653,92.69,656.51,91.44,656.51,91.44Zm-5.27.16a.41.41,0,1,1-.4.41A.41.41,0,0,1,651.25,91.61Zm2.32.48.21.22-1,.51Zm6.83.22h0a.51.51,0,0,1,.3.17,2.16,2.16,0,0,0-.56-.05.31.31,0,0,1,.21-.11Zm-3.75.16.09.57A34.05,34.05,0,0,0,648.41,99V97.78a26.46,26.46,0,0,1,8.25-5.31Zm2.86.05a.74.74,0,0,0,.37,0s-.08.15-.17.16-.2-.16-.2-.16Zm.9,0a.43.43,0,0,1,.41.55,6.79,6.79,0,0,0,0,2.94c.17.6.21.81.07.91-1.25.88-1.94-3.08-.9-4.2a.66.66,0,0,1,.4-.21Zm-10.23.14a.41.41,0,1,1-.41.41.41.41,0,0,1,.41-.41h0Zm36,.1.78,1.32-1.09,1.22-.66-1.43Zm-26.81.72,0,.46a4,4,0,0,0-1.47.78c-.08.07,1.3.7,1.44.55v.49c0,.16-2.28-.57-2.43-1.11a4.28,4.28,0,0,1,2.5-1.17Zm-10.28.24a.41.41,0,1,1-.4.41A.41.41,0,0,1,649.11,93.75Zm6.16.48a3.34,3.34,0,0,0-.44,1.17,18.73,18.73,0,0,0-5.07,4h-1l0-.28a28.57,28.57,0,0,1,6.58-4.92Zm4,.13v.58a1.56,1.56,0,0,1-.81-.25A1.51,1.51,0,0,1,659.26,94.37Zm11.66.06.29.31-.18.17Zm-15.7,1.22.58.36a16,16,0,0,0-4.38,3.45h-1.14a14.16,14.16,0,0,1,4.94-3.81Zm30.6.41.11,1.57-1.44.81,0-1.65Zm-27.4,0,1,.11.1.41a15.63,15.63,0,0,0-2.25,1.82A8.93,8.93,0,0,1,658.41,96Zm-2.38.17.4.2-.17.74a11.14,11.14,0,0,0-3.22,2.28h-1.15A16.63,16.63,0,0,1,656,96.19Zm3.69.69h0l.15,4.83c-4.28,5.09-4,10-2.8,14.47l-.81,0a29.11,29.11,0,0,0-2.21-2.43v-14h3a6.85,6.85,0,0,1,2.72-2.81Zm-3.48.68,0,.64a8.55,8.55,0,0,0-1.58,1.22h-1.11a7.4,7.4,0,0,1,2.65-1.85Zm10.06.32.16.76c-10,3.65-11.74,14.25-5.87,21.54l-.4.45A14,14,0,0,1,666.3,97.9Zm-10,.76s.05.58.07.77h-1.12a2,2,0,0,1,1-.77Zm27.94.24-.62,1.51-1.71,0,.78-1.51Zm-10.81,1H675v1.51h-1.56Zm-6.74.15,0,.66c-.69.36-.52.93-.69.92a11.83,11.83,0,0,0-1.54.7,1,1,0,0,0-1.18-.1,1.17,1.17,0,0,0-.32,1.21l-1.19,1.41c-.58-.25-1.13-.23-1.41.15s-.19,1,.32,1.59l-.65,1.69c-.07-.1-1.16.22-1.17.87s.9,1.14.9,1.22l0,1.86c0-.09-.93.28-.81,1.17s1.21.72,1.21.79l.6,1.78a1.12,1.12,0,0,0-.34,1.44c.4.6,1.53.21,1.53.17l.32.45-.35.41s-.15-.19-.23-.17a1.7,1.7,0,0,1-1.77-.56,1.75,1.75,0,0,1,.23-1.94l-.4-1a1.51,1.51,0,0,1-1.42-1.26,1.77,1.77,0,0,1,.9-1.68l0-1.11a1.62,1.62,0,0,1-.93-1.32,1.81,1.81,0,0,1,1-1.43l.4-.19.37-.91a2.43,2.43,0,0,1-.4-1.56c.26-1.18,1.77-1.1,2-1l.7-.9a1.45,1.45,0,0,1,.86-1.87l.17-.05a5.61,5.61,0,0,1,1.32.18l.9-.47c0-.5.52-.81,1-1.13Zm5.12,1.65h1.33v1.51h-1.33Zm3.56,0h1.5v1.51h-1.5Zm-8.57.38v.58c-8.61,4.24-5.09,13-3.86,14l-.29.62C661.17,116.43,657.27,106.3,666.83,102.13Zm6.63,1.53h1.62v1.55h-1.62Zm-7,.75-.51,1.41-1.58.13.58-1.41Zm32.32,1h1.08a17.08,17.08,0,0,1-6.36,4.94,1.12,1.12,0,0,1,.06-.38,1.18,1.18,0,0,0,0-.47,15.39,15.39,0,0,0,5.26-4.09Zm-5.54,0a3.5,3.5,0,0,1-1,.86l-.16-.87,1.15,0Zm1.9,0c.11.28-2.83,1.9-2.83,1.76v-.54l1.59-1.22Zm.64,0h.83c-.75,1.22-4.71,3.38-4.55,3.07l.16-.88a17.92,17.92,0,0,0,3.56-2.2Zm1.4,0h1.09a14.53,14.53,0,0,1-4.9,3.81.74.74,0,0,0-.35,0l-.55-.43a19,19,0,0,0,4.71-3.35Zm-30.57.08,0,.64c-2.3,2-3.24,4.57-2,7.55l-.28.64A7,7,0,0,1,666.61,105.53Zm10.47.1.12,1.73-7.14,7a52.14,52.14,0,0,0,1.68-8.78Zm22.86.41v1a15.65,15.65,0,0,1-8.1,5.13l-.06-.37,1.13-.71a20.22,20.22,0,0,0,7-5Zm-8.54,0a4.7,4.7,0,0,1-1.25,2.74H689l-.13-.52a7.66,7.66,0,0,0,2.58-2.21Zm.36.21c.44.71-.22,2.56-.25,2.49-.05.13,3.74.94-.16,2.84a5.59,5.59,0,0,1,.17,2.49,9.8,9.8,0,0,0-1.29-2.69c1.22-.35,2.09-1.11,2-1.36a3,3,0,0,0-1.66-1.11,6.82,6.82,0,0,0,1.18-2.67Zm-27.85.35.12,1.46-1.39.85-.11-1.6ZM688,108a.37.37,0,0,1,.26.09c.68.28.73,3.67.11,4a.49.49,0,0,1-.75-.26,10.21,10.21,0,0,0,0-3.61c0-.16.21-.23.4-.23Zm11.94,0v1.22a39.75,39.75,0,0,1-12.78,9.44l-.4-.7a40.2,40.2,0,0,0,13.18-10Zm-.7.11a12.18,12.18,0,0,1-7.24,5.13l-.06-.75a17.13,17.13,0,0,0,7.3-4.4Zm-50.71.41c2.43,2.52,4.91,5,7.38,7.6l-1,.05-6.43-6.77Zm28.89.13.09.62-.7.78,1.12,1.21.06.29-1,1-.43-.43.53-.6-.9-1-1.67,1.62,1.37,1.51-1,1-.4-.43.53-.62-.92-1-1.7,1.72,1.29,1.44-.86,1-.4-.43.44-.51-.94-1-1.62,1.6,1.34,1.51-1.09,1.11-.41-.41.56-.7-1-1-.81.77s.3-.77.35-.9.33-.34,2-2c2-2,4.11-4,6.14-6.21Zm11.64.4a5.72,5.72,0,0,1,2.09.41c.91.49.62.87,0,1.15a4.73,4.73,0,0,1-2.08.53l0-.41a5.36,5.36,0,0,0,1.35-.46,1,1,0,0,0,.35-.29,2.09,2.09,0,0,0-.71-.45,5.58,5.58,0,0,0-1-.16Zm-26.54.52.75,1.14-.88,1.51-.85-1.3Zm15.06.12c0,.21.29,1,.15.89l-.49-.57Zm11.53.11a3.47,3.47,0,0,1,1.15.19,2.36,2.36,0,0,1-1.14.41Zm10.36.57a.46.46,0,1,1-.45.47h0a.45.45,0,0,1,.44-.45Zm-23.3.81.4.38-.5.59.9,1,1.12-1.06.15.68-10.49,10.46-.58,0,.66-.81-.76-.79.31-.57.89.82,1.62-1.59-1.33-1.42,1.13-1.18.43.38-.64.72.95,1,1.71-1.71-1.34-1.48,1.07-1,.4.38-.5.53,1,1,1.45-1.53-1.32-1.47,1.17-1.15.36.36-.54.61,1,1,1.58-1.64-1.27-1.43Zm22.25.27a.46.46,0,1,1-.45.47h0a.45.45,0,0,1,.45-.46h0Zm-8.5,0a5,5,0,0,1,1.22,2.81,8.51,8.51,0,0,0-2.24-2.32l.16-.41Zm10,.07v1a34.42,34.42,0,0,1-11,8.31l-.67-.81a35.89,35.89,0,0,0,11.64-8.53Zm-4.67.71-1.29,1v-.44l1.29-.58Zm-6.63.08a5.24,5.24,0,0,1,2.56,2.83,48.41,48.41,0,0,1-4.72,2.47,22,22,0,0,1-2.1-4c2.43,0,3.07-1.36,3.09-1.36.58.22.7.25,1.15,0Zm8.67.2a.47.47,0,0,1,.46.44.45.45,0,1,1-.9,0c0-.32.25-.45.45-.44Zm-3.34.3v.46c-.62.55-1.81,1.43-1.81,1.43l-.49,0,.16-1.26a19.24,19.24,0,0,0,2.14-.6Zm-31.51.05,1.18,1-.36,1.53-1.17-.89Zm15.86.29.11.44-9.72,9.72-.55-.09Zm17.91.38a.46.46,0,1,1-.45.47h0a.45.45,0,0,1,.45-.46Zm3.58,0c.05,0,.12,0,.12,0v.84l-.15,0a.43.43,0,0,1-.41-.44h0a.45.45,0,0,1,.43-.46Zm-1.09,1a.46.46,0,1,1-.45.47h0a.45.45,0,0,1,.45-.46Zm-3.79,0a.46.46,0,1,1-.45.46h0a.45.45,0,0,1,.45-.45Zm-3.26.14h.47l-.86.52a3.65,3.65,0,0,0,.4-.54Zm8.27.21v.94a36.16,36.16,0,0,1-9.32,6.84l-.55-.56a35,35,0,0,0,9.86-7.24Zm-6.3.51a.46.46,0,1,1-.45.47h0a.45.45,0,0,1,.45-.45Zm4,0a.46.46,0,1,1-.45.47h0a.45.45,0,0,1,.45-.45Zm-45,1.84a6.07,6.07,0,0,1,4.52-.74l.51,1.06a6.09,6.09,0,0,0-5.05.92,5.82,5.82,0,0,0-4.12-1.15l0-1.11a5.81,5.81,0,0,1,4.15,1Zm39.69-1a.46.46,0,1,1-.45.46h0a.45.45,0,0,1,.45-.45Zm4.13.19a.46.46,0,1,1-.45.47h0a.45.45,0,0,1,.45-.45Zm-5.48.68a.46.46,0,1,1-.45.46h0a.45.45,0,0,1,.45-.45Zm4.21.27a.46.46,0,1,1-.45.47h0a.45.45,0,0,1,.45-.45Zm-5.6.54a.47.47,0,1,1-.46.47h0a.46.46,0,0,1,.46-.46Zm4.39.38a.46.46,0,1,1-.45.46h0a.45.45,0,0,1,.45-.45h0Zm-5.73.32a.46.46,0,1,1-.45.46h0a.45.45,0,0,1,.45-.45Zm-20,.41,1.13,1.07-1.16,1.18-.4-.41.65-.68-.44-.6Zm24.44.1a.46.46,0,1,1-.45.47h0a.45.45,0,0,1,.45-.44Zm-1.3.78a.46.46,0,1,1-.45.47h0a.45.45,0,0,1,.45-.45Zm-1.41.78a.46.46,0,1,1-.45.47h0a.45.45,0,0,1,.45-.44Zm-23.22,1.3.36.3-.58.72h-.44Zm-7.1,1.91a11.09,11.09,0,0,0-2.78,1.84L655.7,124ZM651,124l3.41,0-1.13,1.62a6.89,6.89,0,0,0-2.26-1.66Zm4.05.18a8.36,8.36,0,0,1,1.79,2.28,15.21,15.21,0,0,1,3-2.13,23.24,23.24,0,0,0-3.08,4,9.11,9.11,0,0,0-1.59-3,7.1,7.1,0,0,0-1.69,2.53,22,22,0,0,0-2.34-3.31,7.83,7.83,0,0,1,2.34,1.81c.35-.9,1.29-2.12,1.62-2.15Zm-4.07.89a9,9,0,0,1,2.36,3.79l-.76,0c-.4-1.28-1.09-2.56-1.6-3.84Zm8.47.21c-.58,1.22-1.29,2.43-1.81,3.75l-.75,0A10.5,10.5,0,0,1,659.5,125.27Zm-4.32.53h0a7.21,7.21,0,0,1,1.27,3.13l-.55,0a10.73,10.73,0,0,0-.65-1.59c-.17-.26-.31-.22-.43,0a6.93,6.93,0,0,0-.53,1.54l-.6-.06a5.44,5.44,0,0,1,1.51-3Zm-.1,3.42c.26,0,.53.29.53.79,0,.23-.16.75-.35.78-.36.19-.79-.41-.68-.91s.28-.66.51-.66Zm-1.25.09c.51,0,.62,1.22.4,1.45a.61.61,0,0,1-.93-.34c-.2-.53.18-1.1.52-1.11Zm2.52,0c.56.08.4,1.36.13,1.55-.45.24-.79-.16-.64-.76s.3-.78.51-.79Zm1.29.21c.64.07.27,1.22,0,1.43s-.81-.16-.6-.73.4-.7.61-.7Zm-5.15,0c.47.08.73,1.14.46,1.45s-.56-.08-.76-.37,0-1.08.29-1.08Zm4.94,2.32c.06.56-.36.56-1.56.29a6.94,6.94,0,0,0-2.23,0c-.92.17-1.05.11-1.05-.28s.52-.69,1.72-.73c.85,0,3,0,3.11.66Zm1.86-.33c-1.43.14-1.81,2-1.65,2.62a8.89,8.89,0,0,1-.14,3.07,9.55,9.55,0,0,1-.53,1.65c-.38.76-.28,1.32.28,1.62a1.13,1.13,0,0,0,1.37-.22c.64-.7.71-2.17.32-5.52-.14-1.18-.06-1.42.5-1.35,1.19,0,1.14-1.86-.15-1.87Zm-.17,1.53c-.32-.13-.53.17-.49.9a9.8,9.8,0,0,0,.11,1c.46,3.22.29,5.37-.68,5.47s-1.42-.49-1-1.15c.23-.37.44-.41.89-.23.62.41.47-.18-.09-.6-.36-.26-.4-.26-.19-1.07a9.44,9.44,0,0,0,.26-3.24c-.13-1,.19-2.28,1.41-2.35a.68.68,0,1,1-.2,1.28Zm-8.77,4.22a1.36,1.36,0,0,0,1.18,0,7.54,7.54,0,0,1,.61-2.18,1.5,1.5,0,0,0-2.38.34,1.35,1.35,0,0,0,.57,1.83h0Zm1.22-2.37c.46.1.4.59,0,.43-1-.49-1.86,1-1,1.54.4.24.61.1.19-.23-.17-.2-.13-.28,0-.48.21-.41,1-.34.94,0-.18.94-.3,1.21-.57,1.21a1.27,1.27,0,1,1,.54-2.43Zm13.54,1.68s-4.75,5.46-7,8.24l28.66-.13-5.45-7.64c-4.68,1.1-10.18.78-16.17-.47Zm-.14,1.74c.72,0,1.53.53,2.24,2.3,0,0,3.15-4.8,5.85.19.44-1.12,3-4,5.91-.29,1-2.51,3.45-1.66,3.67-.79a2.61,2.61,0,0,0-3.26.94.74.74,0,0,0,0,.88.48.48,0,1,1-.68.08h0c.49-.37-.51-1.51-1.33-1.93a3.12,3.12,0,0,0-3.45.49,2.62,2.62,0,0,0-.71,1.14.31.31,0,0,0,.07.32c.33.41.11,1-.33.88s-.5-.64-.11-.94c.12-.06.07-.13,0-.23-1.06-3-5-2.45-5.44-.36a.58.58,0,0,0,0,.23c0,.2.16.37.12.53a.51.51,0,0,1-1-.07c0-.24.24-.32.37-.54a.51.51,0,0,0,0-.46,2.52,2.52,0,0,0-3.82-1.28,2.71,2.71,0,0,1,1.86-1.08Zm-1.19,1.32a1.36,1.36,0,0,1,1.08.58c1.12-.6,1.92.44,1.79.54-1.59-1-2.11,1.39-.54,1.3-.69,1.45,1.77,2.06,1.49.22,1.51.54,1.77-1.58.23-1.54.5-.87,1.79-.63,2.33-.09.64-.81,2.22,0,2.37.64-1.77-.92-1.94,1.89-.23,1.29-.51,1.79,2.21,1.53,1.46,0,1.69.56,1.46-2-.2-1.48-.1-.13,1.32-1.62,2.34-.22a1.8,1.8,0,0,1,2.62.21c-1.9-.65-1.54,1.95-.18,1.43-.36,1.73,2.1,1.45,1.47,0,1.91.49,1.07-2.46-.28-1.37.22-1.19,1.82-.69,1.81-.51a1.39,1.39,0,0,1,1.81-.25.86.86,0,1,0,.4,1.59.94.94,0,0,0,1.32.92l1.22,1.71-27.47.17,2.2-2.66c.73.62,1.49.32,1.59-.64,1.6,1,2-1.37.51-1.47a1.62,1.62,0,0,1,.86-.33Zm-1.54.77c.1.07,0,.41-.24.3Zm21.41.68.22.31C683.92,141.55,683.45,141.38,683.65,141.13Z" transform="translate(-610.25 -37.99)"/><path id="path163-0-2-5-8-7-5-6-5-5" class="cls-3" d="M657.43,78.39s-1.51-2.47-3.54-5.38a12.65,12.65,0,0,1-2.54-5.86c-.12-2.07,1-4.15,3-4.25s2.79,1.6,3.11,3c.33-1.4,1.13-3.1,3.11-3s3.08,2.18,3,4.25A12.66,12.66,0,0,1,661,73C658.94,75.92,657.43,78.39,657.43,78.39Z" transform="translate(-610.25 -37.99)"/><path id="path163-0-2-5-8-7-7-8-9-1-8" class="cls-3" d="M690.83,127s-1.51,2.47-3.53,5.38a12.65,12.65,0,0,0-2.54,5.86c-.12,2.07,1,4.15,3,4.25s2.79-1.6,3.11-3c.33,1.4,1.13,3.1,3.11,3s3.08-2.18,3-4.25a12.52,12.52,0,0,0-2.54-5.86c-2-2.91-3.54-5.38-3.54-5.38Z" transform="translate(-610.25 -37.99)"/></g></svg>