<svg id="Ebene_1" data-name="Ebene 1" xmlns="http://www.w3.org/2000/svg" viewBox="0 0 129.2 129.2"><defs><style>.cls-1{fill:#33704c;}.cls-2{fill:#d41308;}.cls-2,.cls-3{stroke:#fff;stroke-miterlimit:10;stroke-width:2px;}</style></defs><title>cardtables</title><circle class="cls-1" cx="674.95" cy="84.38" r="64.58" transform="translate(-245.54 669.99) rotate(-70)"/><path id="path6413-1" class="cls-2" d="M652.74,137.52c-5.36-8.81-11-17.48-18-24.84,7-7.33,12.68-16,18-24.84,5.36,8.86,11,17.48,18,24.84C663.77,120,658.1,128.71,652.74,137.52Z" transform="translate(-610.35 -19.78)"/><path id="path6760-2-4" class="cls-3" d="M652.74,28.7c-9.12,13-18.88,20.52-19,30.69,0,3.29,1.73,8.89,7.29,9.93,3.61.7,8.58-2.23,8.69-8.18,0-1.24,1.24-1.15,1.24.47a33.77,33.77,0,0,1-4.15,14.59h11.94a33.77,33.77,0,0,1-4.15-14.59c0-1.63,1.24-1.65,1.24-.47.1,5.95,5.08,8.88,8.69,8.18,5.56-1.07,7.34-6.67,7.29-9.93C671.63,49.23,661.86,41.74,652.74,28.7Z" transform="translate(-610.35 -19.78)"/><path id="path9714-6-6" class="cls-2" d="M695.54,76.2s-4-6.56-9.39-14.28c-3.6-5.16-6.45-10.75-6.75-15.57-.31-5.5,2.6-11,7.87-11.29s7.4,4.25,8.27,8c.87-3.72,3-8.22,8.27-8s8.18,5.78,7.87,11.29c-.27,4.82-3.15,10.41-6.75,15.57C699.54,69.63,695.54,76.2,695.54,76.2Z" transform="translate(-610.35 -19.78)"/><path id="path147-0-8-1-6-1-1-0-9-1-8" class="cls-3" d="M695.51,92.61c-9.17.2-13.29,10.56-6.5,18.54,1,1.17,1.09,1.84-.72.72-4.56-3-13.31-1.07-13.78,8.32-.55,11.52,15.54,14.84,18.57,2.59.16-1.29,1.17-1.27,1,.57a38.1,38.1,0,0,1-4,14.17H701a38.14,38.14,0,0,1-4-14.17c-.26-1.83.8-1.86,1-.57,3,12.24,19.12,8.93,18.57-2.59-.45-9.38-9.22-11.36-13.79-8.3-1.81,1.17-1.7.46-.72-.72,6.79-8,2.69-18.34-6.49-18.54h0Z" transform="translate(-610.35 -19.78)"/></svg>