<svg width="146" height="120" viewBox="0 0 146 120" fill="none" xmlns="http://www.w3.org/2000/svg">
<path d="M92.6078 112.77H93.2131C80.5514 111.182 79.5099 102.718 79.4359 100.852H98.1041V80.6274H9.44511C8.5326 80.6274 7.78939 79.8865 7.78939 78.9744V9.43082C7.78939 8.51985 8.53149 7.77789 9.44511 7.77789H120.46C121.372 7.77789 122.115 8.51874 122.115 9.43082V43.4491H129.906L129.904 9.43082C129.904 4.23152 125.667 0 120.457 0L98.0024 0.00111912H9.44674C4.23866 0.00111912 0 4.23149 0 9.43194V78.9756C0 79.0136 0.00336302 79.0528 0.00336302 79.0908V91.7043C0.00224209 91.7536 0 91.8039 0 91.8532V92.5459C0 92.5951 0.00336302 92.6455 0.00336302 92.6947V92.8716H0.00784705C0.179362 97.3088 3.83384 100.853 8.32131 100.853H50.4669C50.3918 102.717 49.3515 111.183 36.6897 112.771H37.0966C35.0979 112.771 33.4758 114.39 33.4758 116.385C33.4758 118.381 35.0979 120 37.0966 120H92.6125C94.6112 120 96.2333 118.381 96.2333 116.385C96.2333 114.389 94.6101 112.769 92.6102 112.769L92.6078 112.77ZM64.9526 96.1642C62.4 96.1642 60.3317 94.0995 60.3317 91.5511C60.3317 89.0029 62.3999 86.938 64.9526 86.938C67.5052 86.938 69.5735 89.0027 69.5735 91.5511C69.5724 94.0993 67.5041 96.1642 64.9526 96.1642ZM135.288 47.996H113.651C108.118 47.996 103.634 52.4736 103.634 57.9963V109.998C103.634 115.522 108.119 119.998 113.651 119.998H135.289C140.822 119.998 145.306 115.521 145.306 109.998V57.9935C145.306 52.4707 140.82 47.9942 135.288 47.9942L135.288 47.996ZM124.469 114.448C122.234 114.448 120.421 112.639 120.421 110.407C120.421 108.176 122.234 106.366 124.469 106.366C126.704 106.366 128.517 108.176 128.517 110.407C128.518 112.639 126.706 114.448 124.469 114.448Z" fill="white"/>
</svg>
