<svg id="Layer_1" data-name="Layer 1" xmlns="http://www.w3.org/2000/svg" viewBox="0 0 126.8984 95.2097"><defs><style>.cls-1{fill:#fff;}</style></defs><title>contact</title><path class="cls-1" d="M229.8026,309.3893c-16.6592.0007-33.3248-.2688-49.9749.1211-7.656.1793-13.8007-4.6216-13.7041-13.5323.0226-2.0822.0009-4.1648.0009-6.2472q0-29.8617,0-59.7234,0-1.2494.008-2.4988c.0434-8.903,6.2363-13.2525,13.5215-13.2028,33.8167.2307,67.6358.1106,101.454.12,5.2537.0015,8.8749,2.6065,10.8683,7.3113a14.7746,14.7746,0,0,1,.9864,5.6q.0957,34.6093.0128,69.2189c-.02,6.3337-2.928,10.5047-8.28,12.3173a12.4589,12.4589,0,0,1-3.9162.4946Q255.2911,309.4146,229.8026,309.3893Zm-19.8252-20.1934q10.3613,0,20.7225-.0021c2.2493-.0019,4.388-.3912,5.6163-2.5371,2.5314-4.4226-.0643-12.8152-4.7412-14.9582-2.1635-.9914-4.5944-1.3827-6.8235-2.2527a4.9619,4.9619,0,0,0-4.675.495c-5.9468,3.3551-12.3128,3.9163-18.389.8713a11.5392,11.5392,0,0,0-9.3825-.6662c-7.1094,2.1787-9.5117,5.1479-9.4849,12.5331.0174,4.7957,1.754,6.5055,6.6843,6.5164C196.3288,289.2106,203.1531,289.1992,209.9774,289.1959Zm16.6038-37.6707a16.7122,16.7122,0,0,0-16.7915-16.75,16.7555,16.7555,0,1,0,.0952,33.5108A16.5663,16.5663,0,0,0,226.5812,251.5251Zm34.4466-5.807c3.9122,0,7.8247.0231,11.7367-.0079,2.7134-.0215,3.5551-.8325,3.6016-3.3185.05-2.6491-.8645-3.7792-3.4653-3.7992q-11.8609-.0913-23.7227.0084c-2.5386.0237-3.3764,1.2148-3.361,3.901.0136,2.38,1.2814,3.2337,3.4741,3.2214C253.2032,245.7015,257.1156,245.7173,261.0278,245.7181Zm.1193,15.7c3.91,0,7.82-.0247,11.7291.01,2.1794.0192,3.4806-.7585,3.5021-3.1627.024-2.677-.7728-3.88-3.3506-3.91q-11.9768-.1376-23.9559.0122c-2.4679.0321-3.2227,1.1931-3.2575,3.7438-.0319,2.3427,1.1043,3.3218,3.3542,3.3089C253.1612,261.3976,257.1542,261.4141,261.1471,261.4183Zm0,8.8463v.0076c-3.9944,0-7.9888.0135-11.9831-.0053-2.248-.0106-3.3812.9789-3.35,3.3177.0339,2.5251.8323,3.7323,3.2518,3.7616q11.9814.1451,23.9655.0108c2.5409-.0272,3.3631-1.2567,3.3475-3.9247-.0142-2.4117-1.3345-3.186-3.4984-3.1739C268.97,270.28,265.0587,270.2646,261.1475,270.2646Z" transform="translate(-166.1225 -214.3054)"/></svg>