<svg width="48" height="48" viewBox="0 0 48 48" fill="none" xmlns="http://www.w3.org/2000/svg">
<path d="M19.656 20.1357C18.288 20.1357 17.208 21.3357 17.208 22.7997C17.208 24.2637 18.312 25.4637 19.656 25.4637C21.024 25.4637 22.104 24.2637 22.104 22.7997C22.128 21.3357 21.024 20.1357 19.656 20.1357ZM28.416 20.1357C27.048 20.1357 25.968 21.3357 25.968 22.7997C25.968 24.2637 27.072 25.4637 28.416 25.4637C29.784 25.4637 30.864 24.2637 30.864 22.7997C30.864 21.3357 29.784 20.1357 28.416 20.1357Z" fill="white"/>
<path d="M40.08 0H7.92C5.208 0 3 2.208 3 4.944V37.392C3 40.128 5.208 42.336 7.92 42.336H35.136L33.864 37.896L36.936 40.752L39.84 43.44L45 48V4.944C45 2.208 42.792 0 40.08 0ZM30.816 31.344C30.816 31.344 29.952 30.312 29.232 29.4C32.376 28.512 33.576 26.544 33.576 26.544C32.592 27.192 31.656 27.648 30.816 27.96C29.616 28.464 28.464 28.8 27.336 28.992C25.2805 29.3704 23.1725 29.3623 21.12 28.968C19.915 28.7322 18.7341 28.3868 17.592 27.936C16.99 27.7045 16.4046 27.4319 15.84 27.12C15.768 27.072 15.696 27.048 15.624 27C15.576 26.976 15.552 26.952 15.528 26.928C15.096 26.688 14.856 26.52 14.856 26.52C14.856 26.52 16.008 28.44 19.056 29.352C18.336 30.264 17.448 31.344 17.448 31.344C12.144 31.176 10.128 27.696 10.128 27.696C10.128 19.968 13.584 13.704 13.584 13.704C17.04 11.112 20.328 11.184 20.328 11.184L20.568 11.472C16.248 12.72 14.256 14.616 14.256 14.616C14.256 14.616 14.784 14.328 15.672 13.92C18.24 12.792 20.28 12.48 21.12 12.408C21.264 12.384 21.384 12.36 21.528 12.36C25.6898 11.7967 29.9225 12.5877 33.6 14.616C33.6 14.616 31.704 12.816 27.624 11.568L27.96 11.184C27.96 11.184 31.248 11.112 34.704 13.704C34.704 13.704 38.16 19.968 38.16 27.696C38.16 27.696 36.12 31.176 30.816 31.344V31.344Z" fill="white"/>
</svg>
