<svg id="Ebene_1" data-name="Ebene 1" xmlns="http://www.w3.org/2000/svg" viewBox="0 0 131.74 127.06"><defs><style>.cls-1,.cls-2{fill:#95000b;}.cls-1{stroke:#4e000b;stroke-width:4px;}.cls-1,.cls-3,.cls-4,.cls-6{stroke-miterlimit:10;}.cls-3{fill:none;stroke-dasharray:11.65 11.65;}.cls-3,.cls-4,.cls-6{stroke:#fff;}.cls-3,.cls-6{stroke-width:3px;}.cls-4,.cls-5,.cls-6{fill:#fff;}</style></defs><title>kosmipoker</title><path class="cls-1" d="M498.63,127.85c-4.19,33.63,20.81,64.82,55.83,69.67s66.81-18.49,71-52.12-20.81-64.82-55.83-69.67S502.82,94.22,498.63,127.85Z" transform="translate(-496.17 -73.1)"/><ellipse class="cls-2" cx="66.08" cy="64.08" rx="60.75" ry="57.95"/><ellipse class="cls-3" cx="66.08" cy="64.08" rx="60.75" ry="57.95"/><circle class="cls-4" cx="582.53" cy="140.61" r="15.05" transform="matrix(1, -0.04, 0.04, 1, -501.49, -48.86)"/><circle class="cls-5" cx="543.52" cy="140.61" r="15.05" transform="translate(-197.29 572.82) rotate(-78.67)"/><circle class="cls-5" cx="66.76" cy="41.42" r="15.05"/><line class="cls-6" x1="74.34" y1="66.8" x2="59.68" y2="66.8"/><polygon class="cls-5" points="66.44 48.8 60.53 89.36 72.34 89.36 66.44 48.8"/></svg>