<?xml version="1.0" encoding="utf-8"?>
<!-- Generator: Adobe Illustrator 25.4.1, SVG Export Plug-In . SVG Version: 6.00 Build 0)  -->
<svg version="1.1" id="Ebene_1" xmlns="http://www.w3.org/2000/svg" xmlns:xlink="http://www.w3.org/1999/xlink" x="0px" y="0px"
	 viewBox="0 0 592.1 163.6" style="enable-background:new 0 0 592.1 163.6;" xml:space="preserve">
<style type="text/css">
	.st0{fill:#B8B8B8;}
	.st1{fill:#381D89;}
	.st2{fill:#F2F2F2;}
	.st3{fill:#FFFF5C;}
</style>
<path class="st0" d="M160.3,77.8c-0.6-0.1-1.3,0-1.9,0.2c-2.1-38.6-29.8-71.7-67.1-77.1c-37.6-5.5-72.1,18.9-82.8,56
	c-0.1,0-0.2-0.1-0.4-0.1c-3.7-0.5-7.3,3.8-8,9.5c-0.7,5.6,1.5,10.5,5,11.3c-1.6,42,27.3,79.4,67.1,85.2
	c40.2,5.9,77.1-22.5,84.8-64.2c0.2,0.1,0.4,0.1,0.6,0.1c3.7,0.5,7.3-3.8,8-9.5C166.4,83.4,164,78.3,160.3,77.8z"/>
<g>
	<path class="st1" d="M18,85.1c-4.2,33.6,20.8,64.8,55.8,69.7s66.8-18.5,71-52.1S124.1,37.8,89,33S22.2,51.5,18,85.1z"/>
	<path class="st2" d="M83.2,155.9c-3.1,0-6.2-0.2-9.4-0.7c-35.2-4.9-60.5-36.4-56.3-70.2c2-15.9,10.2-30.1,23.1-40
		c13.7-10.5,30.9-15,48.5-12.5c35.2,4.9,60.5,36.4,56.3,70.2c-2,15.9-10.2,30.1-23.1,40C111,151.4,97.4,155.9,83.2,155.9z
		 M18.5,85.2c-4.1,33.3,20.7,64.3,55.4,69.1c17.3,2.4,34.3-2,47.7-12.3c12.7-9.7,20.7-23.7,22.7-39.4c4.1-33.3-20.7-64.3-55.4-69.1
		c-17.3-2.4-34.3,2-47.7,12.3C28.5,55.6,20.5,69.5,18.5,85.2L18.5,85.2z"/>
</g>
<g>
	<path class="st3" d="M109,67c-1.4-0.7,0.5-6.1-1.4-7.3c-1-0.6-2,0.8-5.3,1.7c-4,1.1-5-0.3-6.9,1s-0.8,2.7-3.5,5.9
		c-1.4,1.7-2.3,2-3,3.8c-0.5,1.2-0.7,2.4-0.5,3.7c0.5,2.1,2.3,3.3,3.5,4c3.5,2.1,4.8,0.7,7.8,2.4c2.4,1.6,4.2,3.9,5.1,6.7
		c1,2.8,0.1,3.6,1.2,5.5c1.8,2.9,5.4,3.4,6.5,3.6c3.7,0.5,5.2-2.6,7.6-1.6c1.3,0.6,2.4,2.1,2.2,3.2c-0.3,1.3-2.7,1.8-4.3,2.1
		c-1,0.1-2,0.2-3,0.2c-2.8,0.4-3.6,2.5-5.8,3.8c-4.2,2.6-7.3-1.4-15.3,0.3c-0.9,0.2-2.2,0.6-4.8,1.5c-4.7,1.6-7,2.4-8.9,3.6
		c-3.8,2.5-3.5,4.1-5.9,4.5c-3.3,0.6-4.9-2.3-7.7-1.3c-1.8,0.7-3.5,2.9-3.1,4.4c0.6,2.5,6,1.1,8.3,4.9c1,1.6,0.4,2.4,1.9,5.3
		c0.7,1.4,1.6,2.7,2.7,3.9c3.7,4.4,4.8,3.9,7,6.9c1,1.4,3,4.2,3,7.9c0,2.6-1,4.3-0.4,4.8s3.4-0.8,5-3.1c3.3-4.5,0.2-8.9,3.3-16.5
		c0.7-1.8,1.6-3.4,2.7-4.9c3-4,5-3.5,6.5-6.6c1.6-3.2,0-5.1,1.8-7.7c1.4-2,3.4-2.6,5.5-3.2c4.6-1.5,9-3.3,13.4-5.4
		c7.5-3.6,12.1-12.9,13.2-20.7c0.1-0.7,1.4-11.2-4.7-20.5c-1.8-2.8-4.5-6.9-8.4-7.1c-3.5-0.2-6.8,2.7-9.5,5.1
		C111.5,64.8,110,67.4,109,67z"/>
	<path class="st3" d="M55.5,81.3c-4,0.7-4.5,1.9-7.8,1.8c-2.8-0.1-3-1.1-5.4-1.1c-3.5,0-6.9,1.5-9.3,4.1c-3.1,3.4-2.8,7.4-5.4,7.8
		c-0.9,0.1-1.2-0.3-2.7-0.1c-0.6,0.1-3,0.4-4.2,1.7c-2.2,2.6,0,9.3,4.1,11.9c1.3,0.8,2.4,1,2.9,2.1c0.8,1.7-1.1,2.9-0.7,5.3
		c0.3,1.8,1.5,1.6,2.4,4.4c0.6,1.6,0.3,1.8,1,3.6c0.5,1.2,1.1,2.3,1.8,3.3c0.7,1.4,1.7,2.7,2.7,3.8c1.8,1.6,5,3.1,6.7,2.1
		c1.1-0.6,0.6-1.6,1.7-4.2c1.3-2.9,2.6-2.9,3.9-5.6c0.9-1.8,0.4-1.9,1.4-6.3c0.9-3.7,1.3-5.6,2.7-7.6c1.1-1.5,2.2-3.1,4.3-3.8
		c3.8-1.3,6.2,2.2,10.2,1c1.9-0.6,2.9-1.8,4.4-3.6c1.4-1.6,4.3-5.1,3.5-8.9c-0.2-0.9-1.7-2.7-4.6-6.2c-2.2-2.6-3.3-4-4-4.4
		C61.8,80.3,57.8,80.9,55.5,81.3z"/>
	<path class="st3" d="M62,54.5c1.1-0.1,2.2,0.1,3.1,0.6c0.8,0.5,0.9,1.1,2.6,3.4c0.4,0.7,1,1.4,1.5,1.9c0.1,0.1,2.3,1.7,4.5,0.8
		c1.2-0.4,2-1.5,2.1-2.8c0-0.5-0.2-0.6-0.8-1.8c-0.8-1.9-0.5-2.4-1-2.8c-1.1-0.9-2.9,0.2-3.3-0.5s0.8-1.2,0.7-2.2
		c-0.2-1.5-3.4-1.2-6.1-3.7c-1.7-1.6-1.4-2.5-2.8-3.1s-2.2,0.1-5.9,1.1c-4.6,1.3-4.5,0.7-5.8,1.5c-2,1.2-6.1,7.1-4.6,5.3
		c1.3,0.8,2.6,1.8,3.8,2.8c1.8,1.6,1.4,1.9,2.1,2.2C54.6,58.4,56.8,54.6,62,54.5z"/>
	<path class="st3" d="M98,47.9c-0.3-0.2,0.6-1.7,0.2-1.9s-1,0.7-1.8,0.5s-0.8-1-1.5-1.2c-0.6-0.1-0.8,0.3-1.8,0.5s-2.4-0.1-2.7-0.7
		s0.6-1.2,0.2-1.8s-1.5-0.5-2.2-0.4c-0.8,0.2-1.5,0.6-2.1,1.2c-0.5,0.4-0.4,0.5-1,1s-1,0.7-1.5,1.1c-0.6,0.4-1.1,1-1.3,1.7
		c-0.2,0.9,0.6,1.1,2.5,3.9c0.4,0.8,1,1.5,1.8,2.1c0.5,0.3,1.1,0.6,1.7,0.8c1.4,0.5,1.7,0.3,2.5,0.6c1.6,0.6,1.3,1.6,2.6,2
		c1.2,0.2,2.4,0,3.5-0.5c1.1-0.4,1-0.7,1.7-0.9c1.9-0.5,3.8,1,4.2,0.6c0.3-0.2-0.3-0.8-0.8-2.3c-0.4-1.1-0.7-1.9-0.3-2.1
		c0.7-0.6,3.3,1.1,3.9,0.6c0.4-0.3-0.3-1.2-0.4-1.4c-1-1.5-3.1-2-3-2.2s4.3,0.9,4.6,0.4c0.1-0.2-0.5-0.8-1.6-1.9
		c-0.3-0.3-0.6-0.6-0.9-0.9c-0.6-0.9-0.3-1.4-0.6-1.5C102.9,44.4,98.6,48.3,98,47.9z"/>
</g>
<path class="st2" d="M13.5,56c-0.4,2.9,1.6,5.7,4.5,6.2c2.9,0.3,5.5-1.7,5.8-4.6c0,0,0-0.1,0-0.1c0.4-2.9-1.5-5.7-4.5-6.2
	c-2.9-0.3-5.5,1.7-5.8,4.6C13.5,56,13.5,56,13.5,56z"/>
<path class="st2" d="M36.4,28c-2.4,0.9-12.8,4.9-15.6,14.6c-0.5,1.9-1.3,4.4-0.2,5.6c2.9,3,17.6-2.7,18.5-12
	C39.2,33.2,38.2,30.3,36.4,28z"/>
<g>
	<path class="st3" d="M436.4,107.2c0-6.7-0.2-13.4,0-20c0.5-15.9,12.7-27.7,27.9-27.3c6.6,0.2,13,2.8,17.7,7.5
		c1.7,1.6,2.7,1.7,4.5,0.1c11.2-9.6,25.3-10.1,35.6-1.6c6.5,5.4,9.3,12.7,9.5,20.7c0.3,13.9,0.1,27.9,0.2,41.8
		c0,2.1-0.8,2.5-2.7,2.5c-6.9-0.1-13.8-0.1-20.7,0c-2.5,0-3.1-0.8-3.1-3.2c0.1-10.4,0-20.8,0-31.3c0-1.8-0.1-3.5-0.1-5.3
		c0-2.5-0.6-4.9-3.6-5.1c-2.8-0.1-3.6,2.2-4,4.5c-0.2,1.3-0.3,2.6-0.3,3.8c0,11-0.1,22,0,33c0,2.8-0.8,3.5-3.5,3.4
		c-6.3-0.2-12.7-0.2-19,0c-3.1,0.1-4.2-0.6-4.1-4c0.2-10.3,0.1-20.6,0.1-30.9c0-1.9-0.1-3.8-0.1-5.6c-0.1-2.4-1.2-4.2-3.7-4.3
		s-3.4,1.8-3.7,3.9c-0.2,1.3-0.3,2.5-0.4,3.8c0,11.2-0.1,22.5,0,33.7c0,2.6-0.6,3.4-3.3,3.3c-6.9-0.2-13.8-0.1-20.7,0
		c-2,0-2.6-0.6-2.6-2.6c0.1-7,0-14.1,0-21.1L436.4,107.2z"/>
	<path class="st3" d="M287.5,95.7c0.2-21,16.4-36,38.5-35.8c18.9,0.2,35,16.9,34.9,36.4c-0.2,20.2-16.7,36.4-36.9,36.2
		c0,0-0.1,0-0.1,0C303.3,132.1,287.3,115.9,287.5,95.7z M333.9,96.2c0.3-5.4-3.9-9.9-9.2-10.2s-9.9,3.9-10.2,9.2c0,0.2,0,0.5,0,0.7
		c-0.3,5.4,3.9,9.9,9.2,10.2c5.4,0.3,9.9-3.9,10.2-9.2C333.9,96.6,333.9,96.4,333.9,96.2z"/>
	<path class="st3" d="M224.5,77.8c7.6-13.3,15.2-26.6,22.8-39.9c0.6-1,1-2.1,2.5-2.1c9.2,0,18.4,0,28.3,0
		c-3.5,6.1-6.7,11.6-9.9,17.1c-4.6,7.9-9.1,15.8-13.8,23.6c-1,1.6-1,3.6,0,5.2c7.4,15.3,14.7,30.6,22.1,45.8
		c1.4,2.8,0.8,3.5-2.2,3.4c-8.4-0.2-16.9-0.2-25.3,0c-2.1,0.3-4.1-1-4.6-3.1c-6-15-12.2-29.9-18.3-44.8c-0.5-1.2-1-2.3-1.5-3.5
		L224.5,77.8z"/>
	<path class="st3" d="M224.5,77.8v1.7c-1.2,1.3-0.6,2.8-0.6,4.3c0,14.6-0.1,29.3,0,43.9c0,2.4-0.5,3.2-3,3.2c-7.5-0.2-15-0.2-22.5,0
		c-2.4,0-3.2-0.5-3.2-3.1c0.1-29.7,0.1-59.4,0-89.1c0-2.3,0.7-3,3-3c7.6,0.1,15.2,0.1,22.8,0c2.4,0,2.9,0.8,2.8,3
		c-0.1,11.7,0,23.4,0,35.1C223.8,75.2,223.4,76.7,224.5,77.8z"/>
	<path class="st3" d="M371.2,118.7c0-3.8,0.1-7.5,0-11.2c0-1.9,0.5-2.6,2.5-2.7c6.9-0.4,9.4-2.6,10.4-9.4c0.5-3.8,0.8-7.7,1.1-11.5
		c1-11.4,10.7-19.7,22-21.1c3.8-0.5,7.7-0.4,11.6-0.6c2-0.1,3,0.4,2.9,2.7c-0.1,7.6-0.1,15.2,0,22.8c0,1.9-0.5,2.6-2.5,2.7
		c-4.4,0.3-6.1,2-7,6.5c-1.1,5.4-1.3,10.9-3.4,16.1c-4.6,11.5-12.9,18.1-25.2,19.4c-3,0.3-6.1,0.4-9.1,0.7c-2.3,0.2-3.4-0.5-3.3-3.1
		C371.4,126.2,371.2,122.4,371.2,118.7z"/>
	<path class="st3" d="M580,96.2c0,10.5-0.1,21.1,0,31.6c0,2.5-0.7,3.2-3.2,3.1c-6.9-0.2-13.8-0.1-20.7,0c-2.1,0-2.8-0.5-2.8-2.7
		c0.1-21.4,0.1-42.9,0-64.3c0-2,0.6-2.6,2.6-2.6c7.1,0.1,14.3,0.1,21.4,0c2.3,0,2.7,1,2.7,2.9C579.9,74.9,580,85.5,580,96.2z"/>
	<path class="st3" d="M566.7,55.8c-7.7,0-13.4-5.4-13.3-12.7c0.4-7.3,6.7-13,14-12.6c6.9,0.4,12.3,6,12.6,12.8
		C579.9,50.5,574.3,55.8,566.7,55.8z"/>
</g>
</svg>
