<svg id="Ebene_1" data-name="Ebene 1" xmlns="http://www.w3.org/2000/svg" viewBox="0 0 384.8 102.65"><defs><style>.cls-1{fill:#ffff5c;}</style></defs><path class="cls-1" d="M436.4,107.2c0-6.7-.2-13.4,0-20,.5-15.9,12.7-27.7,27.9-27.3A26.13,26.13,0,0,1,482,67.4c1.7,1.6,2.7,1.7,4.5.1,11.2-9.6,25.3-10.1,35.6-1.6,6.5,5.4,9.3,12.7,9.5,20.7.3,13.9.1,27.9.2,41.8,0,2.1-.8,2.5-2.7,2.5q-10.35-.15-20.7,0c-2.5,0-3.1-.8-3.1-3.2.1-10.4,0-20.8,0-31.3,0-1.8-.1-3.5-.1-5.3,0-2.5-.6-4.9-3.6-5.1-2.8-.1-3.6,2.2-4,4.5a25.31,25.31,0,0,0-.3,3.8c0,11-.1,22,0,33,0,2.8-.8,3.5-3.5,3.4-6.3-.2-12.7-.2-19,0-3.1.1-4.2-.6-4.1-4,.2-10.3.1-20.6.1-30.9,0-1.9-.1-3.8-.1-5.6-.1-2.4-1.2-4.2-3.7-4.3s-3.4,1.8-3.7,3.9c-.2,1.3-.3,2.5-.4,3.8,0,11.2-.1,22.5,0,33.7,0,2.6-.6,3.4-3.3,3.3-6.9-.2-13.8-.1-20.7,0-2,0-2.6-.6-2.6-2.6.1-7,0-14.1,0-21.1Z" transform="translate(-195.2 -30.48)"/><path class="cls-1" d="M287.5,95.7c.2-21,16.4-36,38.5-35.8,18.9.2,35,16.9,34.9,36.4A36.53,36.53,0,0,1,324,132.5h-.1C303.3,132.1,287.3,115.9,287.5,95.7Zm46.4.5a9.71,9.71,0,0,0-19.4-1v.7a9.71,9.71,0,1,0,19.4,1Z" transform="translate(-195.2 -30.48)"/><path class="cls-1" d="M224.5,77.8l22.8-39.9c.6-1,1-2.1,2.5-2.1h28.3c-3.5,6.1-6.7,11.6-9.9,17.1-4.6,7.9-9.1,15.8-13.8,23.6a4.88,4.88,0,0,0,0,5.2c7.4,15.3,14.7,30.6,22.1,45.8,1.4,2.8.8,3.5-2.2,3.4-8.4-.2-16.9-.2-25.3,0a4.1,4.1,0,0,1-4.6-3.1c-6-15-12.2-29.9-18.3-44.8-.5-1.2-1-2.3-1.5-3.5Z" transform="translate(-195.2 -30.48)"/><path class="cls-1" d="M224.5,77.8v1.7c-1.2,1.3-.6,2.8-.6,4.3,0,14.6-.1,29.3,0,43.9,0,2.4-.5,3.2-3,3.2q-11.25-.3-22.5,0c-2.4,0-3.2-.5-3.2-3.1q.15-44.55,0-89.1c0-2.3.7-3,3-3q11.4.15,22.8,0c2.4,0,2.9.8,2.8,3-.1,11.7,0,23.4,0,35.1C223.8,75.2,223.4,76.7,224.5,77.8Z" transform="translate(-195.2 -30.48)"/><path class="cls-1" d="M371.2,118.7c0-3.8.1-7.5,0-11.2,0-1.9.5-2.6,2.5-2.7,6.9-.4,9.4-2.6,10.4-9.4.5-3.8.8-7.7,1.1-11.5,1-11.4,10.7-19.7,22-21.1,3.8-.5,7.7-.4,11.6-.6,2-.1,3,.4,2.9,2.7q-.15,11.4,0,22.8c0,1.9-.5,2.6-2.5,2.7-4.4.3-6.1,2-7,6.5-1.1,5.4-1.3,10.9-3.4,16.1-4.6,11.5-12.9,18.1-25.2,19.4-3,.3-6.1.4-9.1.7-2.3.2-3.4-.5-3.3-3.1C371.4,126.2,371.2,122.4,371.2,118.7Z" transform="translate(-195.2 -30.48)"/><path class="cls-1" d="M580,96.2c0,10.5-.1,21.1,0,31.6,0,2.5-.7,3.2-3.2,3.1-6.9-.2-13.8-.1-20.7,0-2.1,0-2.8-.5-2.8-2.7.1-21.4.1-42.9,0-64.3,0-2,.6-2.6,2.6-2.6,7.1.1,14.3.1,21.4,0,2.3,0,2.7,1,2.7,2.9C579.9,74.9,580,85.5,580,96.2Z" transform="translate(-195.2 -30.48)"/><path class="cls-1" d="M566.7,55.8c-7.7,0-13.4-5.4-13.3-12.7a13.31,13.31,0,0,1,26.6.2C579.9,50.5,574.3,55.8,566.7,55.8Z" transform="translate(-195.2 -30.48)"/></svg>