<svg id="Ebene_1" data-name="Ebene 1" xmlns="http://www.w3.org/2000/svg" viewBox="0 0 165.82 163.57"><defs><style>.cls-1{fill:#b8b8b8;}.cls-2{fill:#eb9534;stroke:#f2f2f2;stroke-miterlimit:10;}.cls-3{fill:#f2f2f2;}.cls-4{fill:#332f2f;}.cls-5{fill:#83391d;}</style></defs><title>kosmihalloween</title><path class="cls-1" d="M165.69,89.15c-.72,5.79-4.3,10.06-8,9.55s-6.11-5.62-5.39-11.4,4.3-10.06,8-9.55S166.4,83.37,165.69,89.15Z" transform="translate(0.01 0)"/><path class="cls-1" d="M13.51,68.1c-.72,5.79-4.3,10.06-8,9.55S-.6,72,.12,66.25s4.3-10.06,8-9.55S14.23,62.27,13.51,68.1Z" transform="translate(0.01 0)"/><path class="cls-1" d="M5.67,70.66c-5.26,44.74,24.58,86,66.63,92.14S152.71,137.65,158,92.9,133.4,6.91,91.33.77,10.92,25.92,5.67,70.66Z" transform="translate(0.01 0)"/><path class="cls-2" d="M18,85.12c-4.19,33.63,20.81,64.82,55.83,69.67s66.81-18.49,71-52.12S124.05,37.85,89,33,22.22,51.49,18,85.12Z" transform="translate(0.01 0)"/><path class="cls-3" d="M13.54,56.05A5.44,5.44,0,0,0,18,62.21a5.26,5.26,0,0,0,5.83-4.62s0-.07,0-.11a5.45,5.45,0,0,0-4.46-6.16,5.28,5.28,0,0,0-5.85,4.6S13.54,56,13.54,56.05Z" transform="translate(0.01 0)"/><path class="cls-3" d="M36.4,28c-2.37.86-12.78,4.92-15.61,14.61-.55,1.9-1.28,4.39-.16,5.57,2.85,3,17.64-2.65,18.46-12A12.37,12.37,0,0,0,36.4,28Z" transform="translate(0.01 0)"/><path class="cls-4" d="M140.73,89.06c-.22,2.24-1.29,4.2-2.21,6.19-3.77,8.11-8.57,15.51-15.38,21.46a38.72,38.72,0,0,1-6.4,4.48,3.48,3.48,0,0,1-4.84-.91c-.91-1.08-1.48-1.29-2.5-.07-3.09,3.69-7.21,5.59-11.87,6.43a3.43,3.43,0,0,1-3.91-2.17c-.5-1.18-.94-2.38-1.4-3.57-.33-.86-.63-1.28-1.59-.44-2,1.74-4.17,3.32-6.26,5s-3.71,1.69-5.82,0-4.22-3.26-6.24-5c-1-.83-1.29-.34-1.62.45-.51,1.23-.91,2.51-1.46,3.72a3.44,3.44,0,0,1-4,2A19.81,19.81,0,0,1,53.28,120c-.8-.94-1.21-.9-2,0-1.84,2.13-3.12,2.26-5.64.82-7.1-4-12.22-10-16.52-16.83a74.74,74.74,0,0,1-6.54-13c-.79-2.06-.48-3.6,1-4.69s3-.9,4.82.41q8,5.88,16.51,11a1.62,1.62,0,0,0,2.46-.37c1.13-1.24,2.35-2.41,3.54-3.59,2-2,4-2,5.84.11,1.2,1.34,2.38,2.7,3.49,4.11a1.24,1.24,0,0,0,2,.36c2.06-1.31,4.18-2.51,6.27-3.76s3.43-1.15,5.26.37c2.15,1.77,4.31,3.53,6.38,5.39,1.05.94,1.8.8,2.79-.09,2-1.78,4-3.46,6.1-5.16s3.21-1.78,5.53-.4c2.1,1.24,4.24,2.42,6.29,3.73a1.07,1.07,0,0,0,1.7-.28c1.21-1.48,2.44-2.94,3.71-4.37,1.7-1.92,3.78-2,5.61-.19,1.37,1.34,2.74,2.68,4,4.07.57.62.94.7,1.74.24A191.76,191.76,0,0,0,134.49,86.7c2.22-1.62,4.38-1.45,5.65.37A3.32,3.32,0,0,1,140.73,89.06Zm-13.64,11.38c-2,1.2-3.93,2.48-6,3.59-4.22,2.29-5.35,3.63-9-.26-3-3.13-3.33-3.11-5.74.71-2,3.11-4.39,2.81-6.83,1.37-2-1.2-4-2.45-6-3.66-.66-.4-1.26-.68-2,0-2.43,2.06-5,4-7.41,6-2.07,1.7-3.4,1.63-5.45-.13-2.42-2.06-4.93-4-7.39-6a1,1,0,0,0-1.41,0c-2.36,1.42-4.76,2.79-7.13,4.2a3.86,3.86,0,0,1-5.52-1.08c-.88-1.15-1.92-2.18-2.87-3.27-.56-.64-1-.74-1.66,0a42.4,42.4,0,0,1-3.22,3.21,3.78,3.78,0,0,1-4.79.52c-2.45-1.39-4.91-2.77-7.24-4.37-.38-.26-.94-.74-1.39-.28s0,.88.32,1.23c2.93,3.73,5.72,7.58,9.65,10.4.88.63,1.51,1,2.3-.1a18.07,18.07,0,0,1,2.05-2.15c2.16-2.13,5.19-1.36,6.19,1.54a12.07,12.07,0,0,0,6,6.52c.68.39,1.39.35,1.89-.77.73-1.63,1.23-3.34,2-5,1.22-2.69,3.34-3.24,5.69-1.41,2.63,2.06,5.41,3.95,7.92,6.16,1.47,1.28,2.4.62,3.5-.25l7.46-6c2.19-1.74,4.47-1.22,5.65,1.35a33.62,33.62,0,0,1,1.88,4.78c.46,1.62,1.16,1.48,2.39.82a13.83,13.83,0,0,0,6.15-7.22c.67-1.6,2-1.9,3.6-1.62,2,.35,2.81,2.13,4.1,3.32.76.71,1.15.86,2.11.16a36.42,36.42,0,0,0,7.87-8C125.6,103.43,126.77,102.22,127.09,100.44Z" transform="translate(0.01 0)"/><path class="cls-4" d="M109.37,88a13.93,13.93,0,0,1-8.17-3.55A34.18,34.18,0,0,1,92.6,73a3.45,3.45,0,0,1,2.25-4.85c4.25-1,8.52-1.91,12.77-2.88,4.59-1,9.18-2.12,13.77-3.16a37.06,37.06,0,0,1,5-1c2.69-.24,4.64,2,3.7,4.5-2.49,6.69-5.37,13.24-10.6,18.35A13.39,13.39,0,0,1,109.37,88Zm-7.83-14a14.62,14.62,0,0,0,4.72,5.49c1.91,1.51,4.16,2,6.34.72,3.74-2.21,5.67-6,7.62-9.62.22-.4.21-1-.58-.82-3,.82-6,1.47-9,2.07S104.68,73.18,101.54,73.94Z" transform="translate(0.01 0)"/><path class="cls-4" d="M50.59,88A14.14,14.14,0,0,1,40.3,83.18C36.55,79.25,34.14,74.5,32,69.59a22.77,22.77,0,0,1-1.56-4c-.58-2.67,1-4.77,3.75-4.42s5.23,1.06,7.84,1.64q9,2,17.88,4c1.93.43,3.86.87,5.77,1.38,1.74.45,3.08,2.67,2.36,4.24-3,6.44-6.83,12.1-13.75,14.94A19,19,0,0,1,50.59,88ZM39.84,69.55A31.76,31.76,0,0,0,46,79a6,6,0,0,0,6.87,1.26c2.5-1.2,4.11-3.3,5.67-5.47.24-.33.6-1-.23-1A12.87,12.87,0,0,1,55.71,73C50.46,72.13,45.31,70.75,39.84,69.55Z" transform="translate(0.01 0)"/><path class="cls-5" d="M127.09,100.44c-.32,1.78-1.49,3-2.45,4.28a36.42,36.42,0,0,1-7.87,8c-1,.7-1.35.55-2.11-.16-1.29-1.19-2.12-3-4.1-3.32-1.58-.28-2.93,0-3.6,1.62a13.83,13.83,0,0,1-6.15,7.22c-1.23.66-1.93.8-2.39-.82a33.62,33.62,0,0,0-1.88-4.78c-1.18-2.57-3.46-3.09-5.65-1.35l-7.46,6c-1.1.87-2,1.53-3.5.25-2.51-2.21-5.29-4.1-7.92-6.16-2.35-1.83-4.47-1.28-5.69,1.41-.73,1.63-1.23,3.34-2,5-.5,1.12-1.21,1.16-1.89.77a12.07,12.07,0,0,1-6-6.52c-1-2.9-4-3.67-6.19-1.54a18.07,18.07,0,0,0-2.05,2.15c-.79,1.1-1.42.73-2.3.1-3.93-2.82-6.72-6.67-9.65-10.4-.28-.35-.73-.83-.32-1.23s1,0,1.39.28c2.33,1.6,4.79,3,7.24,4.37a3.78,3.78,0,0,0,4.79-.52,42.4,42.4,0,0,0,3.22-3.21c.64-.72,1.1-.62,1.66,0,1,1.09,2,2.12,2.87,3.27a3.86,3.86,0,0,0,5.52,1.08c2.37-1.41,4.77-2.78,7.13-4.2a1,1,0,0,1,1.41,0c2.46,2,5,4,7.39,6,2,1.76,3.38,1.83,5.45.13,2.45-2,5-4,7.41-6,.78-.67,1.38-.39,2,0,2,1.21,4,2.46,6,3.66,2.44,1.44,4.87,1.74,6.83-1.37,2.41-3.82,2.79-3.84,5.74-.71,3.65,3.89,4.78,2.55,9,.26C123.16,102.92,125.11,101.64,127.09,100.44Z" transform="translate(0.01 0)"/><path class="cls-5" d="M101.54,73.94c3.14-.76,6.07-1.57,9-2.16s6.06-1.25,9-2.07c.79-.22.8.42.58.82-2,3.66-3.88,7.41-7.62,9.62-2.18,1.28-4.43.79-6.34-.72A14.62,14.62,0,0,1,101.54,73.94Z" transform="translate(0.01 0)"/><path class="cls-5" d="M39.84,69.55c5.47,1.2,10.62,2.58,15.87,3.49a12.87,12.87,0,0,0,2.63.72c.83,0,.47.67.23,1C57,76.93,55.4,79,52.9,80.23A6,6,0,0,1,46,79,31.76,31.76,0,0,1,39.84,69.55Z" transform="translate(0.01 0)"/></svg>