<svg id="Ebene_1" data-name="Ebene 1" xmlns="http://www.w3.org/2000/svg" viewBox="0 0 165.82 163.57"><defs><style>.cls-1{fill:#b8b8b8;}.cls-2{fill:#eb9534;stroke:#f2f2f2;stroke-miterlimit:10;}.cls-3{fill:#ffd41d;}.cls-4{fill:#f2f2f2;}</style></defs><title>kosmihalloween</title><path class="cls-1" d="M165.69,89.15c-.72,5.79-4.3,10.06-8,9.55s-6.11-5.62-5.39-11.4,4.3-10.06,8-9.55S166.4,83.37,165.69,89.15Z" transform="translate(0.01 0)"/><path class="cls-1" d="M13.51,68.1c-.72,5.79-4.3,10.06-8,9.55S-.6,72,.12,66.25s4.3-10.06,8-9.55S14.23,62.27,13.51,68.1Z" transform="translate(0.01 0)"/><path class="cls-1" d="M5.67,70.66c-5.26,44.74,24.58,86,66.63,92.14S152.71,137.65,158,92.9,133.4,6.91,91.33.77,10.92,25.92,5.67,70.66Z" transform="translate(0.01 0)"/><path class="cls-2" d="M18,85.12c-4.19,33.63,20.81,64.82,55.83,69.67s66.81-18.49,71-52.12S124.05,37.85,89,33,22.22,51.49,18,85.12Z" transform="translate(0.01 0)"/><rect class="cls-3" x="36.27" y="101.3" width="90.83" height="9.06"/><rect class="cls-3" x="119.04" y="96.77" width="8.07" height="9.06"/><rect class="cls-3" x="42.31" y="106.91" width="78.95" height="11.72"/><path class="cls-4" d="M13.54,56.05A5.44,5.44,0,0,0,18,62.21a5.26,5.26,0,0,0,5.83-4.62s0-.07,0-.11a5.45,5.45,0,0,0-4.46-6.16,5.28,5.28,0,0,0-5.85,4.6S13.54,56,13.54,56.05Z" transform="translate(0.01 0)"/><path class="cls-4" d="M36.4,28c-2.37.86-12.78,4.92-15.61,14.61-.55,1.9-1.28,4.39-.16,5.57,2.85,3,17.64-2.65,18.46-12A12.37,12.37,0,0,0,36.4,28Z" transform="translate(0.01 0)"/><path d="M140.73,89.06c-1.34,8.31-19.3,37.78-28.83,31.23-.91-1.09-1.48-1.3-2.5-.08-4.32,5.11-15.63,10.8-17.18.69-.33-.86-.63-1.28-1.59-.44-8.48,7.74-9.85,7.85-18.32,0-2.17-1.51-2.09,3-3.08,4.17-4,5.31-12.56-1-16-4.63-.8-.94-1.21-.9-2,0C43.52,131.17,8.77,79.17,28.39,86.66c3.7,1.88,15.91,13.15,19,10.59,2.5-2.48,6-7.63,9.38-3.48,1.8,1.18,3,5.64,5.47,4.47,9.22-6.57,10-5.25,17.91,2,3.22,2,6.05-3.93,8.89-5.25,3.87-3.67,8.13,1.74,11.82,3.33,6.22-.53,4.57-13.16,15.07-.77C121.35,100,138.65,77.42,140.73,89.06Zm-13.64,11.38c-5,2.18-10.23,9.28-15,3.33-3-3.13-3.33-3.11-5.74.71-4.61,7.12-10-3.5-14.91-2.3-14.84,13.29-8.88,5-21.66-.13-6.66,3.89-10.16,8.16-15.52-.14-.56-.64-1-.74-1.66,0-2.11,2.14-4.67,5.82-8,3.73-17-11.45-4.77,1.77,1.34,7,1.84,1.82,2.92-1.31,4.35-2.25,6.19-4.88,6.79,6.86,12.16,8.06.68.39,1.39.35,1.89-.77,3.31-13,8.67-5.44,15.57-.22,3.37,2.41,7.85-4.74,11-6.24,7.19-5.25,5.66,9.56,9.92,6.95,5-1.39,4.78-9.56,9.75-8.84,2.77,0,3.51,5.15,6.21,3.48C121,109.39,125.09,105.51,127.09,100.44Z" transform="translate(0.01 0)"/><rect class="cls-3" x="36.75" y="67.17" width="23.36" height="14.61" rx="7.3"/><path d="M49.83,88c-10.09-.35-15-10.47-18.57-18.44-5.34-10,3.08-9.07,10-6.83,7.89,1.79,15.81,3.43,23.65,5.38C73.49,71.83,56.14,89.28,49.83,88ZM39.07,69.55c3.79,9.64,12,16.5,18.74,5.21.24-.33.59-1-.23-1C51.44,72.29,45.48,71.06,39.07,69.55Z" transform="translate(0.01 0)"/><rect class="cls-3" x="101.84" y="68.17" width="23.36" height="14.61" rx="7.3"/><path d="M96,68.52c7.85-1.94,15.77-3.58,23.65-5.37,7-2.24,15.37-3.16,10,6.83-3.61,8-8.48,18.08-18.56,18.43C104.78,89.67,87.43,72.22,96,68.52Zm7.37,5.63c-.83,0-.47.66-.23,1,6.76,11.29,14.94,4.43,18.73-5.21C115.44,71.45,109.49,72.68,103.35,74.15Z" transform="translate(0.01 0)"/></svg>