<svg id="Layer_1" data-name="Layer 1" xmlns="http://www.w3.org/2000/svg" viewBox="0 0 273.74 73.02"><defs><style>.cls-1{fill:#fcf088;}.cls-2{fill:#fbf088;}.cls-3{fill:#faee88;}.cls-4{fill:#fbef88;}</style></defs><title>kosmitext</title><path class="cls-1" d="M325.26,430.58c0-4.75-.13-9.5,0-14.25.37-11.3,9-19.7,19.85-19.44a18.6,18.6,0,0,1,12.58,5.33c1.23,1.16,1.9,1.19,3.23.05,8-6.81,18-7.21,25.32-1.13,4.61,3.84,6.6,9,6.74,14.76.24,9.91.05,19.83.12,29.74,0,1.5-.56,1.79-1.9,1.77-4.92-.06-9.83-.1-14.75,0-1.79,0-2.23-.55-2.21-2.26.08-7.41,0-14.83,0-22.25,0-1.25-.05-2.5-.09-3.75,0-1.79-.41-3.52-2.57-3.62-2-.09-2.54,1.58-2.83,3.2a16,16,0,0,0-.21,2.73c0,7.83-.08,15.67,0,23.5,0,2-.6,2.51-2.52,2.45-4.5-.14-9-.16-13.5,0-2.2.08-3-.42-2.94-2.81.17-7.33.07-14.66.06-22,0-1.33-.05-2.67-.1-4-.07-1.71-.84-3-2.62-3.07s-2.39,1.29-2.66,2.78a15.69,15.69,0,0,0-.25,2.72c0,8-.07,16,0,24,0,1.85-.45,2.43-2.35,2.38-4.91-.14-9.83-.09-14.75,0-1.43,0-1.87-.45-1.85-1.85.06-5,0-10,0-15Z" transform="translate(-153.65 -375.92)"/><path class="cls-1" d="M219.3,422.36c.17-14.93,11.67-25.63,27.41-25.49,13.48.12,24.9,12,24.82,25.88a26,26,0,0,1-26.32,25.74C230.56,448.27,219.14,436.75,219.3,422.36Zm33,.37a6.92,6.92,0,1,0-13.83-.2,6.92,6.92,0,1,0,13.83.2Z" transform="translate(-153.65 -375.92)"/><path class="cls-2" d="M174.5,409.68q8.11-14.2,16.22-28.39c.4-.7.7-1.52,1.77-1.51,6.56,0,13.12,0,20.16,0-2.5,4.31-4.77,8.25-7.05,12.17-3.26,5.61-6.48,11.25-9.83,16.81a3.4,3.4,0,0,0,0,3.67c5.27,10.85,10.44,21.75,15.74,32.59,1,2,.6,2.46-1.57,2.42q-9-.17-18,0a3,3,0,0,1-3.29-2.17c-4.28-10.65-8.67-21.26-13-31.88-.34-.84-.73-1.65-1.1-2.48Z" transform="translate(-153.65 -375.92)"/><path class="cls-3" d="M174.5,409.68v1.24c-.83.92-.46,2-.46,3.07,0,10.4-.06,20.81,0,31.21,0,1.69-.34,2.29-2.16,2.25-5.32-.13-10.65-.11-16,0-1.7,0-2.27-.39-2.26-2.18q.09-31.71,0-63.42c0-1.66.48-2.13,2.12-2.1,5.41.09,10.82.1,16.23,0,1.69,0,2.05.54,2,2.12-.07,8.32,0,16.65,0,25C174,407.78,173.72,408.83,174.5,409.68Z" transform="translate(-153.65 -375.92)"/><path class="cls-4" d="M278.88,438.73c0-2.67.05-5.33,0-8,0-1.35.34-1.84,1.81-1.92,4.93-.25,6.7-1.87,7.4-6.68.39-2.71.57-5.46.8-8.19.69-8.14,7.58-14,15.64-15,2.71-.36,5.48-.26,8.22-.44,1.43-.1,2.1.27,2.07,1.9-.09,5.41-.07,10.83,0,16.24,0,1.35-.34,1.83-1.79,1.94-3.15.24-4.33,1.43-5,4.6-.79,3.81-.95,7.73-2.42,11.43-3.27,8.19-9.17,12.85-17.93,13.83-2.15.24-4.32.29-6.47.5-1.67.16-2.44-.34-2.34-2.19C279,444.07,278.88,441.4,278.88,438.73Z" transform="translate(-153.65 -375.92)"/><path class="cls-4" d="M427.36,422.72c0,7.5-.05,15,0,22.49,0,1.75-.5,2.27-2.25,2.23-4.91-.11-9.83-.09-14.74,0-1.49,0-2-.36-2-1.94q.08-22.86,0-45.73c0-1.4.41-1.88,1.84-1.86,5.08.07,10.16.09,15.24,0,1.67,0,1.9.69,1.89,2.08C427.34,407.57,427.36,415.15,427.36,422.72Z" transform="translate(-153.65 -375.92)"/><path class="cls-3" d="M417.93,394c-5.5,0-9.56-3.86-9.48-9.06a9.47,9.47,0,0,1,18.92.21C427.33,390.22,423.33,394,417.93,394Z" transform="translate(-153.65 -375.92)"/></svg>