<svg width="94" height="144" viewBox="0 0 94 144" fill="none" xmlns="http://www.w3.org/2000/svg">
<path d="M46.9866 107.924C32.2835 107.924 19.2477 112.319 11.0625 118.989C9.69851 120.05 8.94043 121.717 8.94043 123.384V138.391C8.94043 141.422 11.5171 143.999 14.5486 143.999L79.5758 144C82.6071 144 85.184 141.423 85.184 138.392V123.385C85.184 121.718 84.4259 120.05 83.0619 118.99C74.8772 112.168 61.8414 107.924 46.9862 107.924L46.9866 107.924Z" fill="white"/>
<path d="M67.1466 81.0945C67.1466 92.2283 58.1201 101.254 46.9866 101.254C35.8518 101.254 26.8267 92.2283 26.8267 81.0945C26.8267 69.9597 35.8521 60.9346 46.9866 60.9346C58.1203 60.9346 67.1466 69.96 67.1466 81.0945Z" fill="white"/>
<path d="M88.0646 0H5.90898C2.87767 0 0.452148 2.4255 0.452148 5.45683V46.6862C0.452148 49.7175 2.87765 52.1431 5.90898 52.1431H73.0583C75.0292 52.1431 76.5444 53.6593 76.5444 55.6291L76.5454 65.937C76.5454 67.9079 78.9709 68.8173 80.1836 67.301L91.7033 54.1139C92.7649 52.9011 93.3707 51.2336 93.3707 49.5663V5.45686C93.6742 2.42556 91.0975 2.71044e-05 88.0649 2.71044e-05L88.0646 0ZM18.7932 34.8631C18.7932 36.5305 17.4292 37.8944 15.7619 37.8944C14.0945 37.8944 12.7306 36.5304 12.7306 34.8631L12.7295 17.2797C12.7295 15.6123 14.0935 14.2484 15.7608 14.2484C17.4281 14.2484 18.7921 15.6124 18.7921 17.2797L18.7932 34.8631ZM31.3742 29.861C31.3742 31.5284 30.0102 32.8923 28.3429 32.8923C26.6755 32.8923 25.3116 31.5283 25.3116 29.861V22.4334C25.3116 20.766 26.6755 19.4021 28.3429 19.4021C30.0102 19.4021 31.3742 20.766 31.3742 22.4334V29.861ZM43.8031 34.8631C43.8031 36.5305 42.4391 37.8944 40.7718 37.8944C39.1045 37.8944 37.7405 36.5304 37.7405 34.8631V17.2797C37.7405 15.6123 39.1045 14.2484 40.7718 14.2484C42.4391 14.2484 43.8031 15.6124 43.8031 17.2797V34.8631ZM56.3841 40.0165C56.3841 41.6839 55.0202 43.0478 53.3528 43.0478C51.6854 43.0478 50.3215 41.6838 50.3215 40.0165V12.2776C50.3215 10.6102 51.6855 9.2463 53.3528 9.2463C55.0202 9.2463 56.3841 10.6103 56.3841 12.2776V40.0165ZM68.9652 34.8631C68.9652 36.5305 67.6012 37.8944 65.9339 37.8944C64.2664 37.8944 62.9026 36.5304 62.9026 34.8631V17.2797C62.9026 15.6123 64.2665 14.2484 65.9339 14.2484C67.6013 14.2484 68.9652 15.6124 68.9652 17.2797V34.8631ZM81.5462 29.861C81.5462 31.5284 80.1822 32.8923 78.5149 32.8923C76.8475 32.8923 75.4836 31.5283 75.4836 29.861V22.4334C75.4836 20.766 76.8475 19.4021 78.5149 19.4021C80.1822 19.4021 81.5462 20.766 81.5462 22.4334V29.861Z" fill="white"/>
</svg>
