<svg id="Layer_1" data-name="Layer 1" xmlns="http://www.w3.org/2000/svg" viewBox="0 0 122.7503 122.4313"><defs><style>.cls-1{fill:#fff;}</style></defs><title>public</title><path class="cls-1" d="M267.2891,635.3342c-5.4935.0009-10.9879-.0573-16.48.0314-2.0112.0325-2.8875-.6756-2.8787-2.7245q.0575-13.4465-.0094-26.8933c-.0105-2.1022.7815-2.9085,2.9661-2.8914q16.4794.1284,32.96.0071c2.0156-.0123,2.7233.7075,2.9112,2.7116a142.0629,142.0629,0,0,1-.0111,27.156c-.182,1.8636-.7889,2.6585-2.7288,2.6306C278.4433,635.2814,272.8658,635.3333,267.2891,635.3342Z" transform="translate(-205.9763 -557.7606)"/><path class="cls-1" d="M310.1,635.3332c-4.6582,0-9.3172-.0509-13.9741.026-1.83.03-2.51-.58-2.3747-2.475.3478-4.8868.7163-9.7844.7322-14.6787.0137-4.2274-.3845-8.4614-.7251-12.6825-.1545-1.9153.3745-2.6836,2.4337-2.6648,9.3988.0854,18.7989.0691,28.1981.01,1.8633-.0116,2.4865.6763,2.862,2.5256a63.5088,63.5088,0,0,1,.7078,23.2943c-.2454,1.472-.6376,2.9271-.7765,4.4074-.1578,1.6822-.9836,2.2729-2.61,2.2554C319.75,635.2994,314.925,635.3328,310.1,635.3332Z" transform="translate(-205.9763 -557.7606)"/><path class="cls-1" d="M224.2493,635.3364c-4.3259,0-8.6564-.1212-12.9758.0461-2.5383.0983-3.4832-.64-3.9931-3.3277a65.2389,65.2389,0,0,1-.6152-22.32,32.3047,32.3047,0,0,1,.9621-5.1233,2.7867,2.7867,0,0,1,1.9785-1.63c9.8151-.1086,19.6318-.0615,29.448-.0961,1.6187-.0057,1.9495.81,1.86,2.2025-.2991,4.6419-.7484,9.2864-.76,13.9309-.0107,4.31.5009,8.62.7168,12.9337.1684,3.3655.1235,3.3759-3.1444,3.3818Q230.9877,635.3463,224.2493,635.3364Z" transform="translate(-205.9763 -557.7606)"/><path class="cls-1" d="M285.4784,642.7415c-1.71,5.5391-3.22,10.8643-5.0016,16.0973a62.8724,62.8724,0,0,1-11.1251,19.9094c-1.4532,1.7608-2.3362,2.0447-3.9544.1029-7.299-8.759-11.4915-18.9717-14.3649-29.8365-.5264-1.99-.9862-3.998-1.5443-6.2731Z" transform="translate(-205.9763 -557.7606)"/><path class="cls-1" d="M284.8362,595.5368H249.3915c1.0829-4.0458,1.9519-7.8964,3.1487-11.6423,2.8252-8.843,6.61-17.2147,12.7239-24.3542,2.0187-2.3573,2.1388-2.3644,4.0776-.0713,7.3014,8.636,11.4068,18.8141,14.2576,29.5931.5082,1.9216.9532,3.86,1.41,5.7949C285.0426,594.9978,284.9341,595.1721,284.8362,595.5368Z" transform="translate(-205.9763 -557.7606)"/><path class="cls-1" d="M278.3449,678.9844c2.3293-4.4588,4.966-8.545,6.6673-12.9892,2.5114-6.56,4.5148-13.3315,6.4035-20.1052.6849-2.4562,1.422-3.5221,4.2134-3.46,9.3069.2062,18.6213.0781,27.9445.0781C322.5826,656.4364,293.3733,680.0053,278.3449,678.9844Z" transform="translate(-205.9763 -557.7606)"/><path class="cls-1" d="M210.7894,595.598c6.9747-19.2552,27.91-34.94,45.7083-36.557a26.007,26.007,0,0,1-1.2244,2.4494A86.6626,86.6626,0,0,0,243.13,592.6326c-.45,2.3512-1.4335,3.229-3.9558,3.1767-8.4023-.1741-16.8105-.0615-25.2164-.0719C212.9788,595.7362,212,595.6535,210.7894,595.598Z" transform="translate(-205.9763 -557.7606)"/><path class="cls-1" d="M278.186,559.1691c14.98-.9821,42.0528,20.7148,45.5489,36.39-.9106.063-1.7844.1747-2.6584.176-8.6543.013-17.31-.0787-25.9618.0669-2.2413.0377-3.1265-.8382-3.4892-2.8227a90.784,90.784,0,0,0-8.0962-24.2537c-1.22-2.4492-2.7269-4.7549-4.0852-7.1362C279.0183,560.8431,278.6491,560.0644,278.186,559.1691Z" transform="translate(-205.9763 -557.7606)"/><path class="cls-1" d="M256.5356,678.9958c-16.7562-.8967-38.9941-17.0146-45.6511-36.3279.8472-.056,1.6356-.1526,2.424-.1535,8.82-.0107,17.6418.0934,26.4584-.0763,2.2272-.0429,2.9127.896,3.2506,2.7189a91.3275,91.3275,0,0,0,8.0914,24.2541C252.6925,672.584,254.5976,675.5963,256.5356,678.9958Z" transform="translate(-205.9763 -557.7606)"/></svg>