<svg width="48" height="48" viewBox="0 0 48 48" fill="none" xmlns="http://www.w3.org/2000/svg">
<g clip-path="url(#clip0_64_1977)">
<path d="M30.0748 28.9335C31.4176 28.6166 32.2493 27.2711 31.9324 25.9282C31.6154 24.5854 30.2699 23.7537 28.927 24.0707C27.5842 24.3876 26.7525 25.7331 27.0695 27.076C27.3864 28.4188 28.7319 29.2505 30.0748 28.9335Z" fill="white"/>
<path d="M20.2654 28.2655C21.241 27.2899 21.241 25.7081 20.2654 24.7325C19.2898 23.7569 17.708 23.7569 16.7323 24.7325C15.7567 25.7081 15.7567 27.2899 16.7323 28.2656C17.708 29.2412 19.2898 29.2412 20.2654 28.2655Z" fill="white"/>
<path d="M29.0809 32.1684C27.9861 33.2351 25.7124 33.6281 24.0563 33.6281C22.4002 33.6281 20.0984 33.2351 19.0317 32.1684C18.9709 32.1076 18.8987 32.0593 18.8192 32.0264C18.7398 31.9935 18.6546 31.9766 18.5686 31.9766C18.4826 31.9766 18.3974 31.9935 18.3179 32.0264C18.2384 32.0593 18.1662 32.1076 18.1054 32.1684C18.0446 32.2292 17.9963 32.3014 17.9634 32.3809C17.9305 32.4604 17.9136 32.5455 17.9136 32.6316C17.9136 32.7176 17.9305 32.8028 17.9634 32.8822C17.9963 32.9617 18.0446 33.0339 18.1054 33.0947C19.7896 34.7789 23.0738 34.9193 24.0282 34.9193C24.9826 34.9193 28.2388 34.807 29.951 33.0947C30.0679 32.9716 30.1375 32.8112 30.1478 32.6418C30.1581 32.4724 30.1083 32.3047 30.0072 32.1684C29.8837 32.0467 29.7174 31.9785 29.544 31.9785C29.3707 31.9785 29.2043 32.0467 29.0809 32.1684V32.1684Z" fill="white"/>
<path d="M24 0C19.2533 0 14.6131 1.40758 10.6663 4.04473C6.71955 6.68188 3.64341 10.4302 1.8269 14.8156C0.0103986 19.201 -0.464881 24.0266 0.461164 28.6822C1.38721 33.3377 3.67299 37.6141 7.02945 40.9706C10.3859 44.327 14.6623 46.6128 19.3178 47.5388C23.9734 48.4649 28.799 47.9896 33.1844 46.1731C37.5698 44.3566 41.3181 41.2805 43.9553 37.3337C46.5924 33.3869 48 28.7467 48 24C48 17.6348 45.4715 11.5303 40.9706 7.02943C36.4697 2.52856 30.3652 0 24 0V0ZM37.979 27.2281C38.036 27.5713 38.0642 27.9187 38.0632 28.2667C38.0632 33.6561 31.8035 38.007 24.0562 38.007C16.3088 38.007 10.0491 33.6561 10.0491 28.2667C10.0481 27.9094 10.0763 27.5527 10.1333 27.2C9.39913 26.8731 8.79953 26.3038 8.43496 25.5876C8.07038 24.8713 7.96296 24.0515 8.13068 23.2655C8.29841 22.4795 8.7311 21.775 9.35629 21.2699C9.98148 20.7649 10.7612 20.49 11.5649 20.4912C12.4652 20.5 13.3284 20.8513 13.979 21.4737C16.393 19.7053 19.7333 18.6105 23.4667 18.4982L25.2351 10.1333C25.2776 9.97249 25.3774 9.83273 25.5158 9.74035C25.6597 9.65627 25.829 9.62641 25.993 9.65614L31.8035 10.8912C31.9998 10.4694 32.3132 10.1129 32.7063 9.86406C33.0995 9.61524 33.5558 9.48461 34.0211 9.48772C34.5103 9.48821 34.9886 9.63233 35.3966 9.9022C35.8047 10.1721 36.1245 10.5558 36.3165 11.0058C36.5084 11.4558 36.564 11.9522 36.4764 12.4335C36.3887 12.9148 36.1617 13.3598 35.8235 13.7132C35.4852 14.0667 35.0506 14.3131 34.5737 14.4218C34.0967 14.5305 33.5983 14.4967 33.1403 14.3247C32.6823 14.1527 32.2849 13.8501 31.9973 13.4543C31.7098 13.0585 31.5448 12.587 31.5228 12.0982L26.3298 11.0035L24.7298 18.4982C28.379 18.6386 31.6912 19.7614 34.0772 21.4737C34.3942 21.1578 34.7709 20.9082 35.1854 20.7395C35.5998 20.5708 36.0438 20.4864 36.4912 20.4912C37.4218 20.4912 38.3143 20.8609 38.9723 21.5189C39.6303 22.1769 40 23.0694 40 24C39.995 24.6724 39.8033 25.3302 39.4465 25.9002C39.0897 26.4701 38.5816 26.9298 37.979 27.2281V27.2281Z" fill="white"/>
</g>
<defs>
<clipPath id="clip0_64_1977">
<rect width="48" height="48" fill="white"/>
</clipPath>
</defs>
</svg>
