<svg id="Layer_1" data-name="Layer 1" xmlns="http://www.w3.org/2000/svg" viewBox="0 0 435.8733 419.3286"><defs><style>.cls-1{fill:#fff;}.cls-2{fill:none;stroke:#fff;stroke-miterlimit:10;stroke-width:16px;}</style></defs><title>room_media</title><path class="cls-1" d="M133.2234,424.1517c.0964-33.6081,27.9644-61.28,61.5869-61.1532,33.6094.1266,61.338,28.0175,61.0834,61.63a61.4284,61.4284,0,0,1-61.5625,61.1436C160.6564,485.7813,133.1269,457.8093,133.2234,424.1517Zm44.29-30.8667c-3.8356.0634-6.314,2.5078-6.3252,5.8827-.0558,16.8171-.0813,33.6347.01,50.4515a5.626,5.626,0,0,0,8.6279,5.0484q21.3615-12.1431,42.5993-24.503c4.5668-2.6614,4.5266-7.3633.031-10.1127q-21.07-12.886-42.2121-25.6553A14.6284,14.6284,0,0,0,177.5132,393.2849Z" transform="translate(-79.8318 -211.1033)"/><path class="cls-1" d="M388.3185,404.7071c0-6.916-.0708-13.833.0164-20.7479.1342-10.644,8.1818-20.54,18.6521-22.3956,13.3243-2.3616,24.74,4.3717,28.3635,17.5665a26.9907,26.9907,0,0,1,.7747,6.926c.0721,12.4151.1038,24.8314.0109,37.2463-.0744,9.9345-4.1316,17.65-13.1022,22.4534-12.9717,6.9454-30.029-.3761-33.8248-14.6577a34.6547,34.6547,0,0,1-.8632-8.1433c-.1224-6.08-.0382-12.1648-.0382-18.2476Z" transform="translate(-79.8318 -211.1033)"/><path class="cls-1" d="M411.9876,487.6661c-6.9995-.0008-13.999.02-20.9983-.009-3.9417-.0165-4.8084-.9329-4.842-4.9151-.0077-.9165-.0431-1.8363.0178-2.7491.1709-2.5615,1.1879-3.6311,3.7634-3.6753,4.4983-.0773,9-.0924,13.4978-.0088,1.9055.0354,2.7811-.5885,2.67-2.5817a39.0922,39.0922,0,0,1,.0157-5.7448c.1835-1.9854-.8708-2.6377-2.5077-3.02-16.6813-3.8959-27.6235-14.1376-31.72-30.6557-1.6683-6.7266-1.0742-14.0328-1.3153-21.0819-.06-1.7582,1.2575-2.8331,3.1623-2.8363,1.6665-.0028,3.3331-.0183,5-.0064,3.2822.0234,3.9394.711,4.0443,3.933.1543,4.7393.0954,9.5073.6182,14.2085,1.22,10.9648,10.1091,20.9934,20.7748,23.8545,16.5726,4.4457,32.914-5.3833,36.311-22.2593.9708-4.8227.62-9.9213.7675-14.8966.1179-3.9866.8882-4.8354,4.846-4.8432,1.0832-.0021,2.1665-.0042,3.25.0013,3.5592.0183,4.4141.7215,4.31,4.1842-.1847,6.1427.0237,12.3729-.9572,18.4-1.851,11.3737-8.4323,19.9083-17.9013,26.2371a35.3982,35.3982,0,0,1-13.9547,5.7479c-1.6127.2661-2.71.8492-2.4612,2.92a37.8894,37.8894,0,0,1,.0323,6.2419c-.0758,1.6391.5753,2.2146,2.1867,2.19,4.332-.0651,8.6658-.0415,12.9986-.0116,3.55.0245,4.2892.7759,4.3245,4.2313.0731,7.146.0731,7.1459-7.1842,7.1458Q421.3618,487.6667,411.9876,487.6661Z" transform="translate(-79.8318 -211.1033)"/><path class="cls-1" d="M297.072,259.45c16.0764-.145,31.022,3.7292,44.3414,12.89,9.3277,6.4156,16.4693,14.69,18.78,26.0864a34.3072,34.3072,0,0,1-4.8158,26.0556c-6.7925,10.6-16.7107,17.1812-28.2047,21.7111A81.3759,81.3759,0,0,1,289.67,351.29c-6.5612-.5859-13.0211-2.5059-19.4654-4.0748-1.8621-.4533-3.2285-.5085-4.8217.6836a55.6888,55.6888,0,0,1-21.2686,9.4877,44.4127,44.4127,0,0,1-7.6379,1.0746,3.4154,3.4154,0,0,1-2.79-1.3951c-.3091-.7544.4312-2.0831.98-3a8.2249,8.2249,0,0,1,1.972-1.8931c5.4583-4.4567,8.0767-10.4671,9.1951-17.2025a4.56,4.56,0,0,0-1.301-3.1706c-4.9912-5.5284-8.96-11.6282-10.4511-19.0164a34.1413,34.1413,0,0,1,5.0683-26.7014c8.998-13.4,22.21-20.5626,37.4482-24.2111,6.6615-1.595,13.5894-2.0773,20.3963-3.0649Zm-18.09,46.0418a10.4459,10.4459,0,0,0-9.9993-10.4039,10.6826,10.6826,0,0,0-10.4418,10.3414,10.3416,10.3416,0,0,0,10.3765,10.2853A10.0522,10.0522,0,0,0,278.9818,305.4919Zm56.5069.1391c.5759-4.7029-3.779-10.3622-10.11-10.5169-5.4866-.1341-10.3557,4.8964-10.3294,10.4265A10.35,10.35,0,0,0,325.2863,315.72,10.0736,10.0736,0,0,0,335.4887,305.631Zm-38.4848,10.0007a10.3462,10.3462,0,0,0,10.4489-10.19A10.83,10.83,0,0,0,296.97,295.0886a10.35,10.35,0,0,0-10.007,10.3815A9.8718,9.8718,0,0,0,297.0039,315.6317Z" transform="translate(-79.8318 -211.1033)"/><path class="cls-1" d="M218.2156,529.8018c-.6413-17.5476,12.4785-33.96,29.712-38.38a33.418,33.418,0,0,1,8.1242-1.0551q40.9774-.1144,81.9554-.0413c20.6369.0192,37.9255,18.4686,38.0392,37.7158.0772,13.073-4.0951,23.7632-13.8968,32.2483-14.6629,12.6933-37.5654,12.332-51.8484-.7831a5.8831,5.8831,0,0,0-4.4342-1.696c-5.8284.1016-11.6618-.0442-17.4883.102a6.1418,6.1418,0,0,0-3.7234,1.4018c-21.56,19.867-57.4428,9.4894-65.0214-18.94C218.7254,536.9662,218.6677,533.3314,218.2156,529.8018Zm32.1233-14.8026c0,1.666-.09,3.3384.0246,4.9964.1225,1.7664-.5823,2.3379-2.3106,2.2839-3.2455-.1014-6.4985-.0913-9.7447.0018-2.6976.0774-3.5664,1.0159-3.6162,3.6769-.0452,2.4149-.0285,4.8315-.01,7.2471.0258,3.4236.7969,4.2067,4.3071,4.2617,2.9149.0457,5.8382.1357,8.7442-.0308,2.1532-.1233,2.7317.7149,2.6438,2.7353-.1375,3.1595-.0665,6.33-.0236,9.4948.0326,2.3995,1.0827,3.5348,3.49,3.623,2.6621.0975,5.3324.086,7.9956.0058,2.428-.0732,3.4756-1.1636,3.5078-3.5555.0448-3.3315.0788-6.6656-.0048-9.9955-.0439-1.751.6353-2.3479,2.3584-2.295,3.1624.0969,6.3316.0825,9.4951.0011,3.0629-.0788,3.87-.9086,3.9377-3.8985q.0815-3.6218.0017-7.2468c-.0668-3.131-.924-3.99-4.07-4.0414-3.1647-.0513-6.3326-.0755-9.4955.0138-1.6152.0456-2.2537-.5261-2.2222-2.1573.066-3.414-.0234-6.8308.02-10.2456a2.9749,2.9749,0,0,0-3.184-3.3517c-2.8271-.1206-5.6661-.1147-8.4942-.007-2.1217.0808-3.4016,1.1795-3.3524,3.4855C250.3719,511.6665,250.3433,513.3331,250.3388,514.9992Zm76.5952,35.9677c5.2779.5793,11.4-4.591,11.4017-11.3834.0016-6.1228-5.3981-11.2714-11.6318-11.2469a11.2408,11.2408,0,0,0-11.2419,11.489C315.5116,546.3332,320.3261,551.0088,326.9341,550.9668Zm30.9239-31.0459a11.395,11.395,0,0,0-22.7874.2377,11.3943,11.3943,0,1,0,22.7874-.2377Z" transform="translate(-79.8318 -211.1033)"/><path class="cls-2" d="M112.61,372.03c19.6978-87.69,95.58-152.9272,186.3218-152.9272" transform="translate(-79.8318 -211.1033)"/><path class="cls-1" d="M107.6341,417.15c10.4242-20.2527,27.02-44.94,43.2038-59.5308l-37.0558,8.56-33.95-17.1248C92.0822,367.0754,102.3318,395,107.6341,417.15Z" transform="translate(-79.8318 -211.1033)"/><path class="cls-2" d="M485.5761,390.2454c0-94.5961-83.48-171.1421-186.6444-171.1421" transform="translate(-79.8318 -211.1033)"/><path class="cls-2" d="M482.9269,469.5047c-19.6978,87.69-95.58,152.9272-186.3218,152.9272" transform="translate(-79.8318 -211.1033)"/><path class="cls-1" d="M487.9028,424.3852c-10.4242,20.2527-27.02,44.94-43.2038,59.5308l37.0558-8.56,33.95,17.1248C503.4547,474.46,493.205,446.5349,487.9028,424.3852Z" transform="translate(-79.8318 -211.1033)"/><path class="cls-2" d="M109.9607,451.29c0,94.5961,83.48,171.1421,186.6444,171.1421" transform="translate(-79.8318 -211.1033)"/></svg>