<svg width="48" height="48" viewBox="0 0 48 48" fill="none" xmlns="http://www.w3.org/2000/svg">
<path d="M15.078 45.0001C33.192 45.0001 43.101 29.9911 43.101 16.9981C43.101 16.5781 43.101 16.1521 43.083 15.7321C45.0122 14.3356 46.6772 12.6066 48 10.6261C46.1979 11.4207 44.2883 11.9443 42.333 12.1801C44.3926 10.949 45.9352 9.01203 46.674 6.72913C44.739 7.8755 42.621 8.68025 40.413 9.10813C38.9285 7.5272 36.9642 6.47988 34.8243 6.1284C32.6843 5.77692 30.4882 6.14089 28.576 7.16394C26.6639 8.18699 25.1424 9.81201 24.2473 11.7873C23.3523 13.7626 23.1335 15.9779 23.625 18.0901C19.7092 17.8938 15.8784 16.8765 12.3811 15.1044C8.88381 13.3322 5.79805 10.8447 3.324 7.80313C2.06802 9.97238 1.68472 12.5383 2.25194 14.9799C2.81916 17.4215 4.29436 19.5557 6.378 20.9491C4.81662 20.8961 3.28956 20.4768 1.92 19.7251V19.8601C1.92269 22.1326 2.70992 24.3344 4.14862 26.0934C5.58732 27.8524 7.58924 29.0607 9.816 29.5141C8.97079 29.747 8.09769 29.863 7.221 29.8591C6.60295 29.861 5.98614 29.8037 5.379 29.6881C6.00836 31.6443 7.23382 33.3546 8.88374 34.5796C10.5337 35.8045 12.5254 36.4827 14.58 36.5191C11.0897 39.2605 6.7782 40.7473 2.34 40.7401C1.55796 40.7434 0.776469 40.6983 0 40.6051C4.50454 43.4769 9.73589 45.0018 15.078 45.0001V45.0001Z" fill="white"/>
</svg>
