<svg width="136" height="136" viewBox="0 0 136 136" fill="none" xmlns="http://www.w3.org/2000/svg">
<path fill-rule="evenodd" clip-rule="evenodd" d="M100.952 82.1527C104.21 82.1527 106.86 79.5007 106.86 76.2415C106.86 72.9844 104.209 70.3322 100.952 70.3322C97.6946 70.3322 95.0435 72.9841 95.0435 76.2415C95.0435 79.5008 97.6944 82.1527 100.952 82.1527ZM128.809 89.1291H95.3065L83.8196 76.2415L95.3065 63.3561H128.809V89.1291ZM130.008 56.1664V26.7968C130.008 24.8144 128.395 23.2011 126.414 23.2011H119.523V10.3157C119.523 8.33332 117.911 6.71902 115.929 6.71902H99.1793C97.73 6.71902 96.4313 7.58367 95.8685 8.91861C95.3994 10.0332 95.5175 11.2964 96.1836 12.3034C96.8519 13.3104 97.9723 13.9115 99.1793 13.9115H112.335V23.2012H92.2375C90.7893 23.2012 89.4895 24.0659 88.9258 25.4008C88.4578 26.5143 46.9286 126.672 47.5951 127.679C48.2644 128.686 49.3828 129.286 50.5908 129.286H126.415C128.396 129.286 130.009 127.674 130.009 125.689V96.3224H132.406C134.387 96.3224 136 94.7102 136 92.7268V59.7642C136 57.7818 134.387 56.1697 132.406 56.1697L130.008 56.1664ZM90.5281 0.285761C90.0833 0.0970121 89.6143 0 89.1336 0C87.6833 0 86.3827 0.863598 85.8187 2.2017L31.5736 131.007C31.2005 131.893 31.1942 132.869 31.5567 133.759C31.9194 134.649 32.6055 135.345 33.4899 135.718C33.9336 135.905 34.4037 136 34.8844 136C36.3348 136 37.6364 135.136 38.1993 133.8L92.4444 4.9922C93.216 3.16377 92.3559 1.05267 90.5292 0.284141L90.5281 0.285761ZM69.7994 28.1924C69.7994 28.1924 70.1493 25.8135 69.481 24.8076C68.8138 23.8005 67.6944 23.1995 66.4853 23.1995H11.7518C9.23583 23.1995 7.18999 21.1507 7.18999 18.637C7.18999 15.9629 9.24117 13.9097 11.7624 13.9097H73.4279C74.8772 13.9097 76.177 13.0451 76.7407 11.7101C77.2098 10.5966 77.0906 9.33233 76.4234 8.32533C75.7551 7.31832 74.6358 6.71729 73.4277 6.71729H11.7621C5.26827 6.71729 0 11.9874 0 18.463V110.702C0 120.948 8.33226 129.283 18.5723 129.283H24.8376C26.2869 129.283 27.5875 128.419 28.1493 127.083C28.6173 125.97 69.7984 28.1927 69.7984 28.1927L69.7994 28.1924Z" fill="white"/>
</svg>
