<svg id="Layer_1" data-name="Layer 1" xmlns="http://www.w3.org/2000/svg" viewBox="0 0 122.8795 127.4276"><defs><style>.cls-1{fill:#f6f177;stroke:#f2f2f2;stroke-miterlimit:10;}</style></defs><title>wrench</title><path class="cls-1" d="M344.3746,381.8349c-3.8318,0-7.6691-.1114-11.492.0726a4.5752,4.5752,0,0,0-3.031,1.5572c-2.604,3.35-4.9474,6.9013-7.4784,10.31a2.1771,2.1771,0,0,0-.0742,3.0632c2.5894,3.469,4.9771,7.0913,7.6372,10.5028a4.4747,4.4747,0,0,0,3.0708,1.4817c7.4116.1262,14.8277-.0035,22.2388.1337,1.3273.0246,3.4495.608,3.7672,1.4658a5.7794,5.7794,0,0,1-.6522,4.5461c-6.3516,9.5981-15.2548,14.9381-26.8382,15.9629a35.6978,35.6978,0,0,1-11.4846-70.2633,35.0539,35.0539,0,0,1,38.29,14.9154,6.6965,6.6965,0,0,1,1.1947,3.4343c-.0167,2.0148-1.469,2.8168-3.4023,2.8117-3.9151-.01-7.83-.003-11.7454-.003Z" transform="translate(-237.143 -359.0823)"/><path class="cls-1" d="M314.8336,431.8283c-.765.9084-1.1866,1.4939-1.6913,1.996-15.8247,15.7461-31.8123,31.3328-47.4142,47.2965-6.4073,6.556-17.52,6.0972-22.84,1.1243-6.2843-5.8738-7.1987-16.3348-1.23-22.5056,12.0436-12.451,24.3385-24.659,36.5332-36.9638q5.7179-5.77,11.4566-11.5185c.6379-.6392,1.3245-1.23,2.3951-2.2182A41.2235,41.2235,0,0,0,314.8336,431.8283ZM263.0018,466.36a5.103,5.103,0,0,0-5.1383-5.4341,5.4169,5.4169,0,0,0-5.6194,5.1539,5.7566,5.7566,0,0,0,5.3331,5.5561A5.2743,5.2743,0,0,0,263.0018,466.36Z" transform="translate(-237.143 -359.0823)"/></svg>