<svg width="57" height="40" viewBox="0 0 57 40" fill="none" xmlns="http://www.w3.org/2000/svg">
<path d="M55.7626 6.24647C55.4364 5.03644 54.7999 3.93329 53.9166 3.04693C53.0332 2.16058 51.9337 1.52197 50.7277 1.19474C46.2836 4.03719e-06 28.4743 0 28.4743 0C28.4743 0 10.6603 4.03719e-06 6.22553 1.19474C5.01913 1.52111 3.91922 2.15943 3.0357 3.04592C2.15219 3.9324 1.516 5.03602 1.19072 6.24647C-3.12951e-06 10.7055 0 20 0 20C0 20 -3.12951e-06 29.2992 1.19072 33.7535C1.51471 34.9646 2.15046 36.0689 3.03417 36.9556C3.91789 37.8423 5.01849 38.4802 6.22553 38.8053C10.665 40 28.4743 40 28.4743 40C28.4743 40 46.2883 40 50.7277 38.8053C51.9346 38.4798 53.0349 37.8417 53.9186 36.9551C54.8022 36.0685 55.4381 34.9644 55.7626 33.7535C56.9345 29.2992 56.9345 20 56.9345 20C56.9345 20 56.9345 10.7055 55.7626 6.24647ZM22.7785 28.5748V11.4299L37.5735 20L22.7785 28.5748Z" fill="white"/>
</svg>
