<svg id="Layer_2" data-name="Layer 2" xmlns="http://www.w3.org/2000/svg" viewBox="0 0 290.16 212.34"><defs><style>.cls-1{fill:#fff;stroke:#000;}</style></defs><title>openarena</title><polygon class="cls-1" points="145.51 145.47 134.37 123.17 145.51 97.47 156.64 123.17 145.51 145.47"/><path class="cls-1" d="M196.09,223.06h36.68a29.92,29.92,0,0,1-11.2-9.27L160.48,13.15,99.39,214a29.94,29.94,0,0,1-11.2,9.27h36.68s-8.13-4.37-11.47-8.37L160.48,48.8l47.08,165.89C204.23,218.69,196.09,223.06,196.09,223.06Z" transform="translate(-14.72 -11.44)"/><path class="cls-1" d="M159.8,41.44C80,41.44,15.22,66.68,15.22,97.81c0,27.28,49.69,50,115.71,55.24l6.15-21.68c-67.13-3.16-122.3-20-116.44-41C27.07,67.24,82.94,44.24,159.8,44.24S294.73,68.9,299,90.32c4.2,21.23-48.88,37.72-115.08,41L190,152.93c65.33-5.42,114.35-28,114.35-55.13C304.38,66.68,239.65,41.44,159.8,41.44Z" transform="translate(-14.72 -11.44)"/></svg>